<svg version="1.1" xmlns="http://www.w3.org/2000/svg" viewBox="0 0 756.4316658134402 273.5242717310698" width="756.4316658134402" height="273.5242717310698">
  <!-- svg-source:excalidraw -->
  
  <defs>
    <style class="style-fonts">
      @font-face {
        font-family: "Virgil";
        src: url("https://excalidraw.com/Virgil.woff2");
      }
      @font-face {
        font-family: "Cascadia";
        src: url("https://excalidraw.com/Cascadia.woff2");
      }
      @font-face {
        font-family: "Assistant";
        src: url("https://excalidraw.com/Assistant-Regular.woff2");
      }
    </style>
    
  </defs>
  <rect x="0" y="0" width="756.4316658134402" height="273.5242717310698" fill="#ffffff"></rect><g stroke-linecap="round" transform="translate(36.216691742316925 52.15702522337142) rotate(343.58593648075345 18.067222500388937 18.683150540174893)"><path d="M36.13 18.68 C36.13 19.76, 36.04 20.86, 35.86 21.93 C35.68 22.99, 35.4 24.06, 35.04 25.07 C34.69 26.09, 34.24 27.09, 33.71 28.02 C33.19 28.96, 32.58 29.86, 31.91 30.69 C31.24 31.52, 30.48 32.3, 29.68 33 C28.88 33.69, 28.01 34.32, 27.1 34.86 C26.2 35.4, 25.23 35.87, 24.25 36.24 C23.26 36.61, 22.23 36.89, 21.2 37.08 C20.17 37.27, 19.11 37.37, 18.07 37.37 C17.02 37.37, 15.96 37.27, 14.93 37.08 C13.9 36.89, 12.87 36.61, 11.89 36.24 C10.91 35.87, 9.94 35.4, 9.03 34.86 C8.13 34.32, 7.25 33.69, 6.45 33 C5.65 32.3, 4.9 31.52, 4.23 30.69 C3.55 29.86, 2.94 28.96, 2.42 28.02 C1.9 27.09, 1.45 26.09, 1.09 25.07 C0.73 24.06, 0.46 22.99, 0.27 21.93 C0.09 20.86, 0 19.76, 0 18.68 C0 17.6, 0.09 16.5, 0.27 15.44 C0.46 14.37, 0.73 13.31, 1.09 12.29 C1.45 11.28, 1.9 10.28, 2.42 9.34 C2.94 8.41, 3.55 7.5, 4.23 6.67 C4.9 5.85, 5.65 5.07, 6.45 4.37 C7.25 3.68, 8.13 3.04, 9.03 2.5 C9.94 1.96, 10.91 1.5, 11.89 1.13 C12.87 0.76, 13.9 0.47, 14.93 0.28 C15.96 0.1, 17.02 0, 18.07 0 C19.11 0, 20.17 0.1, 21.2 0.28 C22.23 0.47, 23.26 0.76, 24.25 1.13 C25.23 1.5, 26.2 1.96, 27.1 2.5 C28.01 3.04, 28.88 3.68, 29.68 4.37 C30.48 5.07, 31.24 5.85, 31.91 6.67 C32.58 7.5, 33.19 8.41, 33.71 9.34 C34.24 10.28, 34.69 11.28, 35.04 12.29 C35.4 13.31, 35.68 14.37, 35.86 15.44 C36.04 16.5, 36.09 18.14, 36.13 18.68 C36.18 19.22, 36.18 18.14, 36.13 18.68" stroke="#495057" stroke-width="2" fill="none"></path></g><g stroke-linecap="round"><g transform="translate(38.05921362709205 72.95015434217783) rotate(343.58593648075345 -4.037750483041464 3.148076647795051)"><path d="M0 0 C0.02 -0.71, 0.91 -3.63, 0.14 -4.24 C-0.64 -4.86, -3.26 -4.7, -4.65 -3.7 C-6.05 -2.69, -7.76 -0.05, -8.21 1.78 C-8.67 3.6, -8.21 5.86, -7.39 7.25 C-6.57 8.65, -4.54 9.58, -3.28 10.13 C-2.03 10.68, -0.41 12.23, 0.14 10.54 C0.68 8.85, 0.02 1.76, 0 0 M0 0 C0.02 -0.71, 0.91 -3.63, 0.14 -4.24 C-0.64 -4.86, -3.26 -4.7, -4.65 -3.7 C-6.05 -2.69, -7.76 -0.05, -8.21 1.78 C-8.67 3.6, -8.21 5.86, -7.39 7.25 C-6.57 8.65, -4.54 9.58, -3.28 10.13 C-2.03 10.68, -0.41 12.23, 0.14 10.54 C0.68 8.85, 0.02 1.76, 0 0" stroke="#495057" stroke-width="2" fill="none"></path></g></g><mask></mask><g stroke-linecap="round"><g transform="translate(73.55665747182991 60.26130507756773) rotate(343.58593648075345 3.94435623384328 3.1480766477950226)"><path d="M0 0 C-0.02 -0.71, -0.89 -3.63, -0.13 -4.24 C0.62 -4.86, 3.19 -4.7, 4.55 -3.7 C5.91 -2.69, 7.58 -0.05, 8.02 1.78 C8.47 3.6, 8.02 5.86, 7.22 7.25 C6.42 8.65, 4.43 9.58, 3.21 10.13 C1.98 10.68, 0.4 12.23, -0.13 10.54 C-0.67 8.85, -0.02 1.76, 0 0 M0 0 C-0.02 -0.71, -0.89 -3.63, -0.13 -4.24 C0.62 -4.86, 3.19 -4.7, 4.55 -3.7 C5.91 -2.69, 7.58 -0.05, 8.02 1.78 C8.47 3.6, 8.02 5.86, 7.22 7.25 C6.42 8.65, 4.43 9.58, 3.21 10.13 C1.98 10.68, 0.4 12.23, -0.13 10.54 C-0.67 8.85, -0.02 1.76, 0 0" stroke="#495057" stroke-width="2" fill="none"></path></g></g><mask></mask><g stroke-linecap="round"><g transform="translate(29.65162452102345 64.15425291553515) rotate(343.58593648075345 20.394061761802618 -10.744522471822194)"><path d="M0 0 C0.14 -1.82, -0.82 -7.73, 0.82 -10.95 C2.46 -14.17, 6.57 -17.54, 9.85 -19.3 C13.14 -21.06, 16.9 -21.49, 20.53 -21.49 C24.16 -21.49, 28.72 -20.67, 31.62 -19.3 C34.51 -17.93, 36.5 -15.33, 37.91 -13.28 C39.33 -11.22, 39.62 -9.01, 40.1 -6.98 C40.58 -4.95, 40.67 -2.08, 40.79 -1.09 M0 0 C0.14 -1.82, -0.82 -7.73, 0.82 -10.95 C2.46 -14.17, 6.57 -17.54, 9.85 -19.3 C13.14 -21.06, 16.9 -21.49, 20.53 -21.49 C24.16 -21.49, 28.72 -20.67, 31.62 -19.3 C34.51 -17.93, 36.5 -15.33, 37.91 -13.28 C39.33 -11.22, 39.62 -9.01, 40.1 -6.98 C40.58 -4.95, 40.67 -2.08, 40.79 -1.09" stroke="#495057" stroke-width="2" fill="none"></path></g></g><mask></mask><g stroke-linecap="round"><g transform="translate(38.06817379355277 81.82685337654789) rotate(343.58593648075345 7.664882272892271 3.6271317898508073)"><path d="M0 0 C0.23 0.62, 0.51 2.65, 1.37 3.71 C2.22 4.78, 3.58 5.82, 5.13 6.41 C6.68 7, 8.98 7.48, 10.68 7.25 C12.38 7.03, 14.55 5.43, 15.33 5.06 M0 0 C0.23 0.62, 0.51 2.65, 1.37 3.71 C2.22 4.78, 3.58 5.82, 5.13 6.41 C6.68 7, 8.98 7.48, 10.68 7.25 C12.38 7.03, 14.55 5.43, 15.33 5.06" stroke="#495057" stroke-width="2" fill="none"></path></g></g><mask></mask><g stroke-linecap="round" transform="translate(51.74311184813928 82.03155131797644) rotate(343.58593648075345 3.284949545525251 1.5740383238975255)"><path d="M6.57 1.57 C6.57 1.67, 6.55 1.76, 6.52 1.85 C6.49 1.94, 6.44 2.03, 6.37 2.11 C6.31 2.2, 6.22 2.28, 6.13 2.36 C6.03 2.44, 5.92 2.52, 5.8 2.59 C5.68 2.66, 5.54 2.72, 5.4 2.78 C5.25 2.84, 5.09 2.89, 4.93 2.94 C4.76 2.98, 4.59 3.02, 4.41 3.05 C4.23 3.08, 4.04 3.11, 3.86 3.12 C3.67 3.14, 3.48 3.15, 3.28 3.15 C3.09 3.15, 2.9 3.14, 2.71 3.12 C2.53 3.11, 2.34 3.08, 2.16 3.05 C1.98 3.02, 1.81 2.98, 1.64 2.94 C1.48 2.89, 1.32 2.84, 1.17 2.78 C1.03 2.72, 0.89 2.66, 0.77 2.59 C0.65 2.52, 0.54 2.44, 0.44 2.36 C0.35 2.28, 0.26 2.2, 0.2 2.11 C0.13 2.03, 0.08 1.94, 0.05 1.85 C0.02 1.76, 0 1.67, 0 1.57 C0 1.48, 0.02 1.39, 0.05 1.3 C0.08 1.21, 0.13 1.12, 0.2 1.04 C0.26 0.95, 0.35 0.87, 0.44 0.79 C0.54 0.71, 0.65 0.63, 0.77 0.56 C0.89 0.49, 1.03 0.43, 1.17 0.37 C1.32 0.31, 1.48 0.26, 1.64 0.21 C1.81 0.17, 1.98 0.13, 2.16 0.09 C2.34 0.06, 2.53 0.04, 2.71 0.02 C2.9 0.01, 3.09 0, 3.28 0 C3.48 0, 3.67 0.01, 3.86 0.02 C4.04 0.04, 4.23 0.06, 4.41 0.09 C4.59 0.13, 4.76 0.17, 4.93 0.21 C5.09 0.26, 5.25 0.31, 5.4 0.37 C5.54 0.43, 5.68 0.49, 5.8 0.56 C5.92 0.63, 6.03 0.71, 6.13 0.79 C6.22 0.87, 6.31 0.95, 6.37 1.04 C6.44 1.12, 6.49 1.21, 6.52 1.3 C6.55 1.39, 6.56 1.53, 6.57 1.57 C6.58 1.62, 6.58 1.53, 6.57 1.57" stroke="#495057" stroke-width="2" fill="none"></path></g><g stroke-linecap="round"><g transform="translate(43.27977550009052 72.32788743136689) rotate(0 3.9640343991730447 -2.6019337136119134)"><path d="M0 0 C0.1 -0.6, 0.16 -2.72, 0.58 -3.59 C1.01 -4.46, 1.61 -5.03, 2.54 -5.2 C3.48 -5.37, 5.29 -5.21, 6.18 -4.61 C7.08 -4.02, 7.64 -2.12, 7.93 -1.62 M0 0 C0.1 -0.6, 0.16 -2.72, 0.58 -3.59 C1.01 -4.46, 1.61 -5.03, 2.54 -5.2 C3.48 -5.37, 5.29 -5.21, 6.18 -4.61 C7.08 -4.02, 7.64 -2.12, 7.93 -1.62" stroke="#495057" stroke-width="2" fill="none"></path></g></g><mask></mask><g stroke-linecap="round" transform="translate(27.696524376119896 99.97634610099158) rotate(0 27.68267240561596 16.625744943314544)"><path d="M0 0 C12.2 0, 24.4 0, 55.37 0 M0 0 C14.97 0, 29.93 0, 55.37 0 M55.37 0 C55.37 13.04, 55.37 26.07, 55.37 33.25 M55.37 0 C55.37 10.97, 55.37 21.94, 55.37 33.25 M55.37 33.25 C39.5 33.25, 23.64 33.25, 0 33.25 M55.37 33.25 C39.85 33.25, 24.34 33.25, 0 33.25 M0 33.25 C0 23.35, 0 13.45, 0 0 M0 33.25 C0 22.09, 0 10.92, 0 0" stroke="#495057" stroke-width="2" fill="none"></path></g><g stroke-linecap="round" transform="translate(52.872308566598804 113.24635816101113) rotate(0 2.7440549906441447 2.7440549906441447)"><path d="M5.49 2.74 C5.49 2.9, 5.47 3.06, 5.45 3.22 C5.42 3.38, 5.38 3.53, 5.32 3.68 C5.27 3.83, 5.2 3.98, 5.12 4.12 C5.04 4.25, 4.95 4.39, 4.85 4.51 C4.74 4.63, 4.63 4.74, 4.51 4.85 C4.39 4.95, 4.25 5.04, 4.12 5.12 C3.98 5.2, 3.83 5.27, 3.68 5.32 C3.53 5.38, 3.38 5.42, 3.22 5.45 C3.06 5.47, 2.9 5.49, 2.74 5.49 C2.59 5.49, 2.42 5.47, 2.27 5.45 C2.11 5.42, 1.95 5.38, 1.81 5.32 C1.66 5.27, 1.51 5.2, 1.37 5.12 C1.23 5.04, 1.1 4.95, 0.98 4.85 C0.86 4.74, 0.74 4.63, 0.64 4.51 C0.54 4.39, 0.45 4.25, 0.37 4.12 C0.29 3.98, 0.22 3.83, 0.17 3.68 C0.11 3.53, 0.07 3.38, 0.04 3.22 C0.01 3.06, 0 2.9, 0 2.74 C0 2.59, 0.01 2.42, 0.04 2.27 C0.07 2.11, 0.11 1.95, 0.17 1.81 C0.22 1.66, 0.29 1.51, 0.37 1.37 C0.45 1.23, 0.54 1.1, 0.64 0.98 C0.74 0.86, 0.86 0.74, 0.98 0.64 C1.1 0.54, 1.23 0.45, 1.37 0.37 C1.51 0.29, 1.66 0.22, 1.81 0.17 C1.95 0.11, 2.11 0.07, 2.27 0.04 C2.42 0.01, 2.59 0, 2.74 0 C2.9 0, 3.06 0.01, 3.22 0.04 C3.38 0.07, 3.53 0.11, 3.68 0.17 C3.83 0.22, 3.98 0.29, 4.12 0.37 C4.25 0.45, 4.39 0.54, 4.51 0.64 C4.63 0.74, 4.74 0.86, 4.85 0.98 C4.95 1.1, 5.04 1.23, 5.12 1.37 C5.2 1.51, 5.27 1.66, 5.32 1.81 C5.38 1.95, 5.42 2.11, 5.45 2.27 C5.47 2.42, 5.48 2.66, 5.49 2.74 C5.5 2.82, 5.5 2.66, 5.49 2.74" stroke="#495057" stroke-width="2" fill="none"></path></g><g stroke-linecap="round"><g transform="translate(28.352375209745674 43.69947899335716) rotate(0 -1.1548640711737903 -6.955092670523754)"><path d="M0 0 C0.6 -0.24, 3.09 -0.83, 3.6 -1.46 C4.11 -2.1, 3.04 -2.94, 3.05 -3.83 C3.07 -4.71, 3.7 -5.51, 3.7 -6.77 C3.71 -8.03, 3.97 -10.18, 3.08 -11.37 C2.19 -12.56, -0.12 -13.83, -1.64 -13.91 C-3.15 -13.99, -5.3 -13.22, -6.01 -11.85 C-6.73 -10.49, -6.39 -7.21, -5.92 -5.72 C-5.46 -4.24, -4.1 -3.64, -3.23 -2.94 C-2.36 -2.24, -1.22 -2.01, -0.68 -1.52 C-0.14 -1.03, -0.11 -0.25, 0 0 M0 0 C0.6 -0.24, 3.09 -0.83, 3.6 -1.46 C4.11 -2.1, 3.04 -2.94, 3.05 -3.83 C3.07 -4.71, 3.7 -5.51, 3.7 -6.77 C3.71 -8.03, 3.97 -10.18, 3.08 -11.37 C2.19 -12.56, -0.12 -13.83, -1.64 -13.91 C-3.15 -13.99, -5.3 -13.22, -6.01 -11.85 C-6.73 -10.49, -6.39 -7.21, -5.92 -5.72 C-5.46 -4.24, -4.1 -3.64, -3.23 -2.94 C-2.36 -2.24, -1.22 -2.01, -0.68 -1.52 C-0.14 -1.03, -0.11 -0.25, 0 0" stroke="#495057" stroke-width="2" fill="none"></path></g></g><mask></mask><g stroke-linecap="round"><g transform="translate(22.612068605130844 43.06325898330806) rotate(0 -1.7836818709828322 2.934444368391098)"><path d="M0 0 C-0.59 0.98, -2.97 4.89, -3.57 5.87 M0 0 C-0.59 0.98, -2.97 4.89, -3.57 5.87" stroke="#495057" stroke-width="2" fill="none"></path></g></g><mask></mask><g stroke-linecap="round"><g transform="translate(17.710108732635376 37.036273224279284) rotate(0 -3.855054366317688 0.17261437461124274)"><path d="M0 0 C-1.29 0.06, -6.43 0.29, -7.71 0.35 M0 0 C-1.29 0.06, -6.43 0.29, -7.71 0.35" stroke="#495057" stroke-width="2" fill="none"></path></g></g><mask></mask><g stroke-linecap="round"><g transform="translate(20.686369850106644 30.929742996940604) rotate(0 -2.8193681186502317 -2.4741393694277747)"><path d="M0 0 C-0.94 -0.82, -4.7 -4.12, -5.64 -4.95 M0 0 C-0.94 -0.82, -4.7 -4.12, -5.64 -4.95" stroke="#495057" stroke-width="2" fill="none"></path></g></g><mask></mask><g stroke-linecap="round"><g transform="translate(29.630966609955294 27.952173248963675) rotate(0 0.6329193735745662 -3.509825617095231)"><path d="M0 0 C0.21 -1.17, 1.05 -5.85, 1.27 -7.02 M0 0 C0.21 -1.17, 1.05 -5.85, 1.27 -7.02" stroke="#495057" stroke-width="2" fill="none"></path></g></g><mask></mask><g stroke-linecap="round"><g transform="translate(34.182290696621294 33.47123182233054) rotate(0 3.9701306160585546 -0.11507624974083797)"><path d="M0 0 C1.32 -0.04, 6.62 -0.19, 7.94 -0.23 M0 0 C1.32 -0.04, 6.62 -0.19, 7.94 -0.23" stroke="#495057" stroke-width="2" fill="none"></path></g></g><mask></mask><g stroke-linecap="round"><g transform="translate(25.43654017907386 34.54762520771442) rotate(0 0.1240020259076573 2.218210916389978)"><path d="M0 0 C-0.1 0.42, -0.76 1.76, -0.62 2.5 C-0.48 3.23, 0.62 4.11, 0.87 4.44 M0 0 C-0.1 0.42, -0.76 1.76, -0.62 2.5 C-0.48 3.23, 0.62 4.11, 0.87 4.44" stroke="#495057" stroke-width="2" fill="none"></path></g></g><mask></mask><g stroke-linecap="round"><g transform="translate(27.924321059737508 46.69750668124607) rotate(0 2.0376628012603533 -1.0191031292201274)"><path d="M0 0 C0.68 -0.34, 3.4 -1.7, 4.08 -2.04 M0 0 C0.68 -0.34, 3.4 -1.7, 4.08 -2.04" stroke="#495057" stroke-width="2" fill="none"></path></g></g><mask></mask><g stroke-linecap="round"><g transform="translate(30.024305215252184 46.99897759895953) rotate(0 1.3233768720195371 -0.7479956233153757)"><path d="M0 0 C0.44 -0.25, 2.21 -1.25, 2.65 -1.5 M0 0 C0.44 -0.25, 2.21 -1.25, 2.65 -1.5" stroke="#495057" stroke-width="2" fill="none"></path></g></g><mask></mask><g stroke-linecap="round"><g transform="translate(29.378671965803164 48.3173081833645) rotate(0 0.9781481227970517 -0.6329193735745378)"><path d="M0 0 C0.33 -0.21, 1.63 -1.05, 1.96 -1.27 M0 0 C0.33 -0.21, 1.63 -1.05, 1.96 -1.27" stroke="#495057" stroke-width="2" fill="none"></path></g></g><mask></mask><g stroke-linecap="round"><g transform="translate(63.26669115766413 68.1740982277106) rotate(332.851350188029 -3.766432691713476 -2.6019337136119134)"><path d="M0 0 C-0.09 -0.6, -0.15 -2.72, -0.55 -3.59 C-0.96 -4.46, -1.53 -5.03, -2.42 -5.2 C-3.3 -5.37, -5.02 -5.21, -5.88 -4.61 C-6.73 -4.02, -7.26 -2.12, -7.53 -1.62 M0 0 C-0.09 -0.6, -0.15 -2.72, -0.55 -3.59 C-0.96 -4.46, -1.53 -5.03, -2.42 -5.2 C-3.3 -5.37, -5.02 -5.21, -5.88 -4.61 C-6.73 -4.02, -7.26 -2.12, -7.53 -1.62" stroke="#495057" stroke-width="2" fill="none"></path></g></g><mask></mask><g stroke-linecap="round"><g transform="translate(83.63805198822729 132.50652409852876) rotate(0 -28.49061957154646 1.3055356455542437)"><path d="M0 0 C1.28 0.1, 6.68 0.04, 7.71 0.57 C8.74 1.11, 7.83 2.77, 6.2 3.21 C4.56 3.65, 1.74 3.12, -2.12 3.21 C-5.97 3.31, -11.66 3.71, -16.93 3.79 C-22.19 3.86, -26.82 3.79, -33.71 3.67 C-40.59 3.56, -53.07 3.73, -58.23 3.1 C-63.4 2.47, -64.35 0.6, -64.69 -0.11 C-65.03 -0.83, -60.99 -1, -60.25 -1.17 M0 0 C1.28 0.1, 6.68 0.04, 7.71 0.57 C8.74 1.11, 7.83 2.77, 6.2 3.21 C4.56 3.65, 1.74 3.12, -2.12 3.21 C-5.97 3.31, -11.66 3.71, -16.93 3.79 C-22.19 3.86, -26.82 3.79, -33.71 3.67 C-40.59 3.56, -53.07 3.73, -58.23 3.1 C-63.4 2.47, -64.35 0.6, -64.69 -0.11 C-65.03 -0.83, -60.99 -1, -60.25 -1.17" stroke="#495057" stroke-width="2" fill="none"></path></g></g><mask></mask><g stroke-linecap="round"><g transform="translate(53.72224062772955 96.56906566956764) rotate(0 1.7635646306594026 -4.050405155919066)"><path d="M0 0 C-2.49 0.03, -11.52 0.16, -14.91 0.19 C-18.3 0.23, -21.08 0.74, -20.36 0.19 C-19.64 -0.35, -12.93 -2.15, -10.58 -3.09 C-8.23 -4.02, -8.44 -5.11, -6.25 -5.4 C-4.06 -5.69, -0.29 -4.92, 2.57 -4.82 C5.42 -4.73, 8.36 -4.18, 10.9 -4.82 C13.44 -5.46, 16.17 -8.26, 17.8 -8.68 C19.43 -9.1, 19.67 -8.42, 20.68 -7.33 C21.7 -6.24, 24.61 -3.44, 23.89 -2.12 C23.17 -0.8, 18.73 0.23, 16.35 0.58 C13.97 0.93, 10.74 0.1, 9.62 0 M0 0 C-2.49 0.03, -11.52 0.16, -14.91 0.19 C-18.3 0.23, -21.08 0.74, -20.36 0.19 C-19.64 -0.35, -12.93 -2.15, -10.58 -3.09 C-8.23 -4.02, -8.44 -5.11, -6.25 -5.4 C-4.06 -5.69, -0.29 -4.92, 2.57 -4.82 C5.42 -4.73, 8.36 -4.18, 10.9 -4.82 C13.44 -5.46, 16.17 -8.26, 17.8 -8.68 C19.43 -9.1, 19.67 -8.42, 20.68 -7.33 C21.7 -6.24, 24.61 -3.44, 23.89 -2.12 C23.17 -0.8, 18.73 0.23, 16.35 0.58 C13.97 0.93, 10.74 0.1, 9.62 0" stroke="#495057" stroke-width="2" fill="none"></path></g></g><mask></mask><g stroke-linecap="round" transform="translate(197.4316658134402 11.5) rotate(0 123 116)"><path d="M0 0 C0 0, 0 0, 0 0 M0 0 C0 0, 0 0, 0 0 M-0.26 6.4 C0.84 5.14, 1.93 3.88, 4.99 0.36 M-0.26 6.4 C0.91 5.05, 2.07 3.71, 4.99 0.36 M0.13 12.04 C2.9 8.86, 5.67 5.68, 10.63 -0.03 M0.13 12.04 C2.73 9.06, 5.32 6.07, 10.63 -0.03 M-0.13 18.44 C4.6 12.99, 9.34 7.55, 15.62 0.33 M-0.13 18.44 C4.65 12.94, 9.44 7.43, 15.62 0.33 M0.27 24.08 C5.02 18.61, 9.77 13.15, 21.26 -0.07 M0.27 24.08 C4.81 18.85, 9.36 13.62, 21.26 -0.07 M0 30.48 C7.15 22.26, 14.29 14.05, 26.25 0.29 M0 30.48 C8.87 20.28, 17.74 10.08, 26.25 0.29 M-0.26 36.88 C7.38 28.09, 15.02 19.3, 31.89 -0.1 M-0.26 36.88 C6.34 29.29, 12.93 21.71, 31.89 -0.1 M0.14 42.52 C12.44 28.36, 24.75 14.21, 36.88 0.26 M0.14 42.52 C14.68 25.79, 29.22 9.07, 36.88 0.26 M-0.12 48.92 C9.78 37.53, 19.68 26.14, 42.52 -0.14 M-0.12 48.92 C16.29 30.03, 32.71 11.14, 42.52 -0.14 M0.27 54.56 C14.31 38.42, 28.34 22.27, 47.51 0.22 M0.27 54.56 C9.77 43.63, 19.27 32.71, 47.51 0.22 M0.01 60.96 C12.84 46.2, 25.67 31.44, 53.15 -0.17 M0.01 60.96 C14.99 43.73, 29.96 26.5, 53.15 -0.17 M-0.25 67.36 C20.99 42.93, 42.22 18.49, 58.14 0.19 M-0.25 67.36 C19.07 45.13, 38.39 22.9, 58.14 0.19 M0.14 73 C25.21 44.16, 50.28 15.32, 63.78 -0.21 M0.14 73 C23.95 45.61, 47.76 18.23, 63.78 -0.21 M-0.12 79.4 C23.07 52.72, 46.26 26.05, 68.77 0.15 M-0.12 79.4 C14.72 62.33, 29.56 45.26, 68.77 0.15 M0.28 85.04 C23.63 58.17, 46.99 31.31, 74.41 -0.24 M0.28 85.04 C22.03 60.01, 43.79 34.98, 74.41 -0.24 M0.01 91.44 C17.05 71.84, 34.09 52.24, 79.4 0.12 M0.01 91.44 C26.83 60.59, 53.64 29.75, 79.4 0.12 M-0.25 97.84 C27.64 65.76, 55.52 33.68, 85.04 -0.28 M-0.25 97.84 C18.93 75.78, 38.1 53.72, 85.04 -0.28 M0.15 103.48 C35.5 62.81, 70.86 22.14, 90.03 0.08 M0.15 103.48 C21.22 79.24, 42.28 55.01, 90.03 0.08 M-0.11 109.88 C23.71 82.47, 47.54 55.06, 95.67 -0.31 M-0.11 109.88 C29.2 76.16, 58.51 42.44, 95.67 -0.31 M0.28 115.52 C26.92 84.88, 53.55 54.24, 100.66 0.05 M0.28 115.52 C29.87 81.48, 59.47 47.44, 100.66 0.05 M0.02 121.92 C42.15 73.45, 84.29 24.98, 106.3 -0.34 M0.02 121.92 C24.27 94.02, 48.51 66.13, 106.3 -0.34 M-0.24 128.32 C24.3 100.08, 48.84 71.85, 111.29 0.02 M-0.24 128.32 C40.09 81.92, 80.42 35.52, 111.29 0.02 M0.15 133.96 C44.61 82.82, 89.06 31.68, 116.27 0.38 M0.15 133.96 C27.49 102.51, 54.83 71.06, 116.27 0.38 M-0.11 140.36 C29.63 106.15, 59.36 71.94, 121.92 -0.02 M-0.11 140.36 C40.23 93.95, 80.57 47.55, 121.92 -0.02 M0.29 146 C40.5 99.73, 80.72 53.47, 126.91 0.34 M0.29 146 C41.46 98.64, 82.63 51.28, 126.91 0.34 M0.02 152.4 C42.36 103.7, 84.69 55, 132.55 -0.05 M0.02 152.4 C46.48 98.96, 92.94 45.51, 132.55 -0.05 M-0.24 158.8 C28.34 125.92, 56.93 93.04, 137.54 0.31 M-0.24 158.8 C33.9 119.53, 68.03 80.26, 137.54 0.31 M0.16 164.44 C32.67 127.04, 65.18 89.63, 143.18 -0.09 M0.16 164.44 C32.13 127.66, 64.1 90.88, 143.18 -0.09 M-0.1 170.84 C52.65 110.15, 105.4 49.47, 148.17 0.27 M-0.1 170.84 C45.39 118.5, 90.88 66.17, 148.17 0.27 M0.29 176.48 C53.14 115.68, 105.99 54.88, 153.81 -0.12 M0.29 176.48 C31.72 140.33, 63.15 104.17, 153.81 -0.12 M0.03 182.88 C57.65 116.6, 115.26 50.32, 158.8 0.24 M0.03 182.88 C57.03 117.31, 114.03 51.73, 158.8 0.24 M-0.23 189.27 C39.95 143.05, 80.14 96.82, 164.44 -0.16 M-0.23 189.27 C33.08 150.95, 66.39 112.63, 164.44 -0.16 M0.16 194.92 C55.36 131.42, 110.55 67.93, 169.43 0.2 M0.16 194.92 C36.41 153.21, 72.67 111.51, 169.43 0.2 M-0.1 201.32 C51.97 141.41, 104.05 81.51, 175.07 -0.19 M-0.1 201.32 C66.05 125.22, 132.2 49.12, 175.07 -0.19 M0.3 206.96 C43.33 157.45, 86.36 107.95, 180.06 0.17 M0.3 206.96 C42.58 158.32, 84.86 109.67, 180.06 0.17 M0.03 213.36 C50.45 155.36, 100.86 97.37, 185.7 -0.23 M0.03 213.36 C64.14 139.61, 128.25 65.86, 185.7 -0.23 M-0.23 219.75 C74.95 133.27, 150.14 46.78, 190.69 0.13 M-0.23 219.75 C64.35 145.47, 128.92 71.19, 190.69 0.13 M0.17 225.4 C65.13 150.66, 130.1 75.93, 196.33 -0.26 M0.17 225.4 C73.3 141.26, 146.44 57.13, 196.33 -0.26 M-0.09 231.8 C75.87 144.41, 151.83 57.02, 201.32 0.1 M-0.09 231.8 C78.94 140.88, 157.97 49.96, 201.32 0.1 M4.89 232.16 C52.89 176.94, 100.89 121.73, 206.96 -0.3 M4.89 232.16 C81.89 143.58, 158.89 55, 206.96 -0.3 M9.88 232.52 C65.28 168.79, 120.68 105.05, 211.95 0.06 M9.88 232.52 C54.34 181.37, 98.8 130.23, 211.95 0.06 M14.87 232.88 C85.56 151.55, 156.26 70.23, 217.59 -0.33 M14.87 232.88 C84.56 152.7, 154.26 72.52, 217.59 -0.33 M20.51 232.48 C74.35 170.55, 128.18 108.62, 222.58 0.03 M20.51 232.48 C100.64 140.31, 180.76 48.13, 222.58 0.03 M25.5 232.84 C70.05 181.58, 114.61 130.32, 228.22 -0.36 M25.5 232.84 C83.9 165.65, 142.31 98.46, 228.22 -0.36 M31.14 232.45 C78.1 178.42, 125.06 124.4, 233.21 0 M31.14 232.45 C81.76 174.21, 132.39 115.98, 233.21 0 M36.13 232.81 C77.07 185.7, 118.02 138.6, 238.19 0.36 M36.13 232.81 C95.55 164.45, 154.98 96.08, 238.19 0.36 M41.77 232.41 C111.98 151.65, 182.19 70.88, 243.84 -0.04 M41.77 232.41 C95.05 171.12, 148.33 109.83, 243.84 -0.04 M46.76 232.77 C95.83 176.32, 144.9 119.87, 246.2 3.34 M46.76 232.77 C105.59 165.09, 164.42 97.41, 246.2 3.34 M52.4 232.38 C107.32 169.2, 162.24 106.02, 245.94 9.74 M52.4 232.38 C104.81 172.09, 157.22 111.8, 245.94 9.74 M57.39 232.74 C113.25 168.47, 169.12 104.2, 246.33 15.38 M57.39 232.74 C109.76 172.49, 162.13 112.24, 246.33 15.38 M63.03 232.34 C101.55 188.03, 140.07 143.72, 246.07 21.78 M63.03 232.34 C110.59 177.64, 158.14 122.93, 246.07 21.78 M68.02 232.7 C120.49 172.34, 172.96 111.98, 246.47 27.42 M68.02 232.7 C118.01 175.19, 168.01 117.67, 246.47 27.42 M73.66 232.31 C141.55 154.21, 209.44 76.11, 246.2 33.82 M73.66 232.31 C137.81 158.51, 201.97 84.71, 246.2 33.82 M78.65 232.67 C142.31 159.43, 205.97 86.19, 245.94 40.22 M78.65 232.67 C145 156.34, 211.35 80.02, 245.94 40.22 M84.29 232.27 C148.41 158.52, 212.52 84.76, 246.34 45.86 M84.29 232.27 C133.06 176.17, 181.84 120.06, 246.34 45.86 M89.28 232.63 C134.98 180.06, 180.68 127.48, 246.08 52.26 M89.28 232.63 C147.64 165.5, 206 98.36, 246.08 52.26 M94.92 232.24 C136.86 183.99, 178.8 135.74, 246.47 57.9 M94.92 232.24 C139.57 180.88, 184.22 129.51, 246.47 57.9 M99.91 232.6 C152.58 172.01, 205.24 111.42, 246.21 64.3 M99.91 232.6 C130.03 197.95, 160.15 163.3, 246.21 64.3 M105.55 232.2 C160.77 168.68, 215.99 105.16, 245.95 70.7 M105.55 232.2 C155.14 175.16, 204.72 118.12, 245.95 70.7 M110.54 232.57 C153.47 183.18, 196.4 133.79, 246.34 76.34 M110.54 232.57 C158.01 177.95, 205.49 123.33, 246.34 76.34 M116.18 232.17 C167.99 172.57, 219.8 112.97, 246.08 82.74 M116.18 232.17 C146.09 197.77, 175.99 163.36, 246.08 82.74 M121.17 232.53 C157.1 191.19, 193.03 149.86, 246.47 88.38 M121.17 232.53 C159.83 188.06, 198.48 143.59, 246.47 88.38 M126.15 232.89 C155.41 199.24, 184.66 165.58, 246.21 94.78 M126.15 232.89 C154.06 200.79, 181.97 168.69, 246.21 94.78 M131.8 232.5 C176.97 180.53, 222.14 128.57, 245.95 101.18 M131.8 232.5 C159.29 200.87, 186.79 169.24, 245.95 101.18 M136.78 232.86 C177.87 185.59, 218.95 138.33, 246.35 106.82 M136.78 232.86 C160.85 205.17, 184.91 177.49, 246.35 106.82 M142.43 232.46 C180.11 189.11, 217.8 145.76, 246.08 113.22 M142.43 232.46 C179.54 189.77, 216.65 147.08, 246.08 113.22 M147.41 232.82 C180.79 194.43, 214.17 156.03, 246.48 118.86 M147.41 232.82 C167.7 209.49, 187.98 186.15, 246.48 118.86 M153.06 232.43 C181.74 199.43, 210.43 166.43, 246.22 125.26 M153.06 232.43 C183.29 197.65, 213.52 162.88, 246.22 125.26 M158.04 232.79 C190.61 195.33, 223.17 157.86, 245.96 131.66 M158.04 232.79 C189.15 197, 220.27 161.21, 245.96 131.66 M163.69 232.39 C192.05 199.76, 220.42 167.13, 246.35 137.3 M163.69 232.39 C185.01 207.87, 206.33 183.34, 246.35 137.3 M168.67 232.75 C185.19 213.75, 201.71 194.76, 246.09 143.7 M168.67 232.75 C198.57 198.36, 228.47 163.97, 246.09 143.7 M174.32 232.36 C201.78 200.77, 229.24 169.17, 246.48 149.34 M174.32 232.36 C198.06 205.04, 221.81 177.73, 246.48 149.34 M179.3 232.72 C199.41 209.6, 219.51 186.47, 246.22 155.74 M179.3 232.72 C204.33 203.93, 229.35 175.14, 246.22 155.74 M184.95 232.32 C204.98 209.28, 225 186.25, 245.96 162.14 M184.95 232.32 C207.02 206.93, 229.09 181.55, 245.96 162.14 M189.94 232.68 C210.42 209.11, 230.91 185.55, 246.36 167.78 M189.94 232.68 C209.27 210.44, 228.6 188.2, 246.36 167.78 M195.58 232.29 C210.29 215.36, 225.01 198.43, 246.09 174.18 M195.58 232.29 C207.35 218.75, 219.12 205.21, 246.09 174.18 M200.57 232.65 C211.13 220.49, 221.7 208.34, 246.49 179.82 M200.57 232.65 C213.01 218.34, 225.45 204.03, 246.49 179.82 M206.21 232.25 C221.08 215.15, 235.95 198.04, 246.23 186.22 M206.21 232.25 C217.13 219.69, 228.06 207.12, 246.23 186.22 M211.2 232.61 C219.07 223.55, 226.95 214.49, 245.97 192.62 M211.2 232.61 C221.29 221, 231.38 209.39, 245.97 192.62 M216.84 232.22 C224.75 223.12, 232.66 214.02, 246.36 198.26 M216.84 232.22 C224.66 223.22, 232.48 214.23, 246.36 198.26 M221.83 232.58 C230.92 222.12, 240.02 211.65, 246.1 204.66 M221.83 232.58 C228.76 224.6, 235.7 216.62, 246.1 204.66 M227.47 232.19 C232.72 226.15, 237.97 220.11, 246.49 210.3 M227.47 232.19 C232.13 226.82, 236.8 221.45, 246.49 210.3 M232.46 232.55 C237.88 226.3, 243.31 220.06, 246.23 216.7 M232.46 232.55 C236.52 227.87, 240.59 223.19, 246.23 216.7 M238.1 232.15 C240.37 229.54, 242.64 226.93, 245.97 223.09 M238.1 232.15 C240.49 229.4, 242.87 226.66, 245.97 223.09 M243.09 232.51 C244.07 231.38, 245.05 230.25, 246.37 228.74 M243.09 232.51 C244.1 231.34, 245.12 230.18, 246.37 228.74" stroke="#ced4da" stroke-width="0.5" fill="none"></path><path d="M0 0 C91.48 0, 182.96 0, 246 0 M0 0 C55.93 0, 111.86 0, 246 0 M246 0 C246 47.49, 246 94.99, 246 232 M246 0 C246 69.86, 246 139.73, 246 232 M246 232 C189.71 232, 133.42 232, 0 232 M246 232 C186.46 232, 126.91 232, 0 232 M0 232 C0 143.19, 0 54.38, 0 0 M0 232 C0 167.87, 0 103.74, 0 0" stroke="#495057" stroke-width="1" fill="none"></path></g><g transform="translate(258.4316658134402 18.5) rotate(0 71.1484375 17.5)"><text x="0" y="0" font-family="Virgil, Segoe UI Emoji" font-size="28px" fill="#000000" text-anchor="start" style="white-space: pre;" direction="ltr" dominant-baseline="text-before-edge">Quarkus app</text></g><g stroke-linecap="round" transform="translate(258.4316658134402 81.5) rotate(0 79.5 30)"><path d="M3.99 3.47 C3.99 3.47, 3.99 3.47, 3.99 3.47 M3.99 3.47 C3.99 3.47, 3.99 3.47, 3.99 3.47 M0.45 13.64 C3.95 9.62, 7.45 5.6, 11.6 0.81 M0.45 13.64 C2.86 10.87, 5.28 8.09, 11.6 0.81 M0.85 19.29 C5.42 14.02, 10 8.75, 17.25 0.42 M0.85 19.29 C6.37 12.93, 11.9 6.57, 17.25 0.42 M0.58 25.68 C9.16 15.82, 17.74 5.95, 22.23 0.78 M0.58 25.68 C5.05 20.54, 9.52 15.4, 22.23 0.78 M0.98 31.33 C7.28 24.07, 13.59 16.82, 27.88 0.38 M0.98 31.33 C7.05 24.34, 13.12 17.36, 27.88 0.38 M0.72 37.72 C7.51 29.91, 14.3 22.1, 32.86 0.74 M0.72 37.72 C11.82 24.95, 22.92 12.18, 32.86 0.74 M0.46 44.12 C9.86 33.3, 19.27 22.48, 38.51 0.35 M0.46 44.12 C12.24 30.56, 24.03 17, 38.51 0.35 M0.85 49.76 C10.32 38.87, 19.79 27.98, 43.49 0.71 M0.85 49.76 C13.67 35.02, 26.49 20.28, 43.49 0.71 M2.56 53.9 C13.36 41.47, 24.16 29.05, 49.14 0.31 M2.56 53.9 C20.27 33.52, 37.99 13.14, 49.14 0.31 M4.92 57.28 C16.95 43.44, 28.98 29.6, 54.12 0.67 M4.92 57.28 C21.48 38.23, 38.04 19.18, 54.12 0.67 M8.59 59.15 C26.82 38.18, 45.05 17.21, 59.77 0.28 M8.59 59.15 C25.23 40.01, 41.87 20.87, 59.77 0.28 M13.58 59.51 C26.26 44.92, 38.94 30.34, 64.75 0.64 M13.58 59.51 C29.67 40.99, 45.77 22.48, 64.75 0.64 M17.91 60.62 C30.4 46.26, 42.88 31.9, 69.74 1 M17.91 60.62 C34.96 41.01, 52.01 21.4, 69.74 1 M23.56 60.23 C41.91 39.11, 60.27 18, 75.38 0.61 M23.56 60.23 C38.72 42.78, 53.89 25.34, 75.38 0.61 M28.54 60.59 C47.19 39.14, 65.83 17.69, 80.37 0.97 M28.54 60.59 C42.7 44.3, 56.87 28, 80.37 0.97 M34.19 60.19 C46.58 45.93, 58.98 31.67, 86.01 0.57 M34.19 60.19 C51.08 40.76, 67.97 21.33, 86.01 0.57 M39.17 60.55 C51.6 46.25, 64.04 31.95, 91 0.93 M39.17 60.55 C56.62 40.48, 74.07 20.41, 91 0.93 M44.82 60.16 C61.99 40.41, 79.16 20.65, 96.64 0.54 M44.82 60.16 C58.62 44.28, 72.42 28.4, 96.64 0.54 M49.8 60.52 C63.35 44.94, 76.89 29.36, 101.63 0.9 M49.8 60.52 C70.24 37.01, 90.68 13.49, 101.63 0.9 M55.45 60.12 C66.45 47.47, 77.45 34.81, 107.27 0.5 M55.45 60.12 C74.24 38.51, 93.03 16.89, 107.27 0.5 M60.43 60.48 C73.77 45.14, 87.12 29.79, 112.26 0.86 M60.43 60.48 C71.77 47.45, 83.1 34.41, 112.26 0.86 M66.08 60.09 C77.32 47.15, 88.56 34.22, 117.9 0.47 M66.08 60.09 C79.57 44.57, 93.06 29.04, 117.9 0.47 M71.06 60.45 C87.36 41.7, 103.66 22.95, 122.89 0.83 M71.06 60.45 C85.51 43.83, 99.95 27.22, 122.89 0.83 M76.71 60.05 C88.79 46.15, 100.88 32.25, 128.53 0.43 M76.71 60.05 C87.19 48, 97.66 35.95, 128.53 0.43 M81.69 60.41 C100.98 38.23, 120.26 16.05, 133.52 0.79 M81.69 60.41 C99.33 40.12, 116.97 19.83, 133.52 0.79 M86.68 60.77 C102.54 42.53, 118.39 24.3, 139.17 0.4 M86.68 60.77 C98.62 47.04, 110.56 33.3, 139.17 0.4 M92.32 60.38 C103.87 47.1, 115.41 33.82, 144.15 0.76 M92.32 60.38 C106.14 44.49, 119.95 28.6, 144.15 0.76 M97.31 60.74 C108.6 47.75, 119.89 34.76, 149.14 1.12 M97.31 60.74 C116.62 38.53, 135.93 16.32, 149.14 1.12 M102.95 60.35 C118.73 42.2, 134.5 24.05, 153.47 2.23 M102.95 60.35 C113.91 47.74, 124.86 35.14, 153.47 2.23 M107.94 60.71 C123.85 42.4, 139.77 24.09, 156.49 4.86 M107.94 60.71 C121.07 45.6, 134.2 30.5, 156.49 4.86 M113.58 60.31 C128.73 42.88, 143.88 25.46, 158.2 8.99 M113.58 60.31 C124.65 47.58, 135.71 34.86, 158.2 8.99 M118.57 60.67 C132.09 45.12, 145.61 29.57, 159.25 13.88 M118.57 60.67 C132.86 44.23, 147.15 27.79, 159.25 13.88 M124.21 60.28 C133.3 49.82, 142.4 39.36, 159.64 19.52 M124.21 60.28 C135.32 47.5, 146.42 34.73, 159.64 19.52 M129.2 60.64 C137.8 50.74, 146.4 40.85, 159.38 25.92 M129.2 60.64 C136.5 52.24, 143.81 43.83, 159.38 25.92 M134.84 60.24 C141.54 52.54, 148.23 44.84, 159.77 31.56 M134.84 60.24 C141.41 52.69, 147.98 45.13, 159.77 31.56 M139.83 60.6 C147.56 51.71, 155.28 42.83, 159.51 37.96 M139.83 60.6 C147.04 52.31, 154.25 44.02, 159.51 37.96 M145.47 60.21 C148.84 56.33, 152.22 52.45, 159.91 43.6 M145.47 60.21 C149.01 56.14, 152.55 52.06, 159.91 43.6 M151.12 59.81 C152.67 58.03, 154.22 56.25, 158.33 51.51 M151.12 59.81 C153.61 56.95, 156.09 54.09, 158.33 51.51" stroke="#228be6" stroke-width="0.5" fill="none"></path><path d="M15 0 C51.18 0, 87.35 0, 144 0 M15 0 C54.11 0, 93.22 0, 144 0 M144 0 C154 0, 159 5, 159 15 M144 0 C154 0, 159 5, 159 15 M159 15 C159 22.93, 159 30.86, 159 45 M159 15 C159 21.91, 159 28.82, 159 45 M159 45 C159 55, 154 60, 144 60 M159 45 C159 55, 154 60, 144 60 M144 60 C110 60, 76 60, 15 60 M144 60 C111.96 60, 79.93 60, 15 60 M15 60 C5 60, 0 55, 0 45 M15 60 C5 60, 0 55, 0 45 M0 45 C0 37.74, 0 30.48, 0 15 M0 45 C0 33.52, 0 22.03, 0 15 M0 15 C0 5, 5 0, 15 0 M0 15 C0 5, 5 0, 15 0" stroke="#1864ab" stroke-width="1" fill="none"></path></g><g transform="translate(269.4316658134402 94.5) rotate(0 57.744140625 12.5)"><text x="0" y="0" font-family="Virgil, Segoe UI Emoji" font-size="20px" fill="#000000" text-anchor="start" style="white-space: pre;" direction="ltr" dominant-baseline="text-before-edge">quarkus-zeebe</text></g><g stroke-linecap="round"><g transform="translate(94.21120691780936 106.35673987067412) rotate(0 46.11022944781541 -0.7555745123403312)"><path d="M0 0 C15.37 -0.25, 76.85 -1.26, 92.22 -1.51 M0 0 C15.37 -0.25, 76.85 -1.26, 92.22 -1.51" stroke="#495057" stroke-width="1" fill="none"></path></g><g transform="translate(94.21120691780936 106.35673987067412) rotate(0 46.11022944781541 -0.7555745123403312)"><path d="M64.2 9.21 C70.58 6.77, 76.97 4.32, 92.22 -1.51 M64.2 9.21 C74.64 5.22, 85.07 1.22, 92.22 -1.51" stroke="#495057" stroke-width="1" fill="none"></path></g><g transform="translate(94.21120691780936 106.35673987067412) rotate(0 46.11022944781541 -0.7555745123403312)"><path d="M63.87 -11.31 C70.33 -9.08, 76.79 -6.84, 92.22 -1.51 M63.87 -11.31 C74.43 -7.66, 84.99 -4.01, 92.22 -1.51" stroke="#495057" stroke-width="1" fill="none"></path></g></g><mask></mask><g transform="translate(130.4316658134402 54.5) rotate(0 15.556640625 12.5)"><text x="0" y="0" font-family="Virgil, Segoe UI Emoji" font-size="20px" fill="#495057" text-anchor="start" style="white-space: pre;" direction="ltr" dominant-baseline="text-before-edge">http</text></g><g stroke-opacity="0.6" fill-opacity="0.6" stroke-linecap="round" transform="translate(546.4316658134402 10) rotate(0 100 73.5)"><path d="M0 0 C0 0, 0 0, 0 0 M0 0 C0 0, 0 0, 0 0 M-0.26 6.4 C1.68 4.17, 3.62 1.93, 4.99 0.36 M-0.26 6.4 C1.31 4.59, 2.87 2.79, 4.99 0.36 M0.13 12.04 C3.42 8.26, 6.71 4.48, 10.63 -0.03 M0.13 12.04 C3.34 8.35, 6.55 4.66, 10.63 -0.03 M-0.13 18.44 C4.85 12.71, 9.83 6.98, 15.62 0.33 M-0.13 18.44 C6 11.39, 12.12 4.34, 15.62 0.33 M0.27 24.08 C7.52 15.74, 14.76 7.4, 21.26 -0.07 M0.27 24.08 C5.66 17.88, 11.05 11.68, 21.26 -0.07 M0 30.48 C7.97 21.31, 15.95 12.14, 26.25 0.29 M0 30.48 C8.74 20.43, 17.48 10.37, 26.25 0.29 M-0.26 36.88 C8.62 26.67, 17.49 16.46, 31.89 -0.1 M-0.26 36.88 C6.61 28.97, 13.48 21.07, 31.89 -0.1 M0.14 42.52 C13.79 26.82, 27.44 11.11, 36.88 0.26 M0.14 42.52 C12.01 28.86, 23.89 15.2, 36.88 0.26 M-0.12 48.92 C15.58 30.86, 31.27 12.8, 42.52 -0.14 M-0.12 48.92 C15.68 30.74, 31.48 12.57, 42.52 -0.14 M0.27 54.56 C17.09 35.22, 33.9 15.87, 47.51 0.22 M0.27 54.56 C9.97 43.4, 19.67 32.24, 47.51 0.22 M0.01 60.96 C20.27 37.65, 40.54 14.34, 53.15 -0.17 M0.01 60.96 C14.6 44.17, 29.2 27.38, 53.15 -0.17 M-0.25 67.36 C16.69 47.86, 33.64 28.37, 58.14 0.19 M-0.25 67.36 C16.01 48.65, 32.26 29.95, 58.14 0.19 M0.14 73 C23.83 45.75, 47.51 18.51, 63.78 -0.21 M0.14 73 C14.56 56.42, 28.97 39.84, 63.78 -0.21 M-0.12 79.4 C13.95 63.22, 28.02 47.03, 68.77 0.15 M-0.12 79.4 C20.16 56.07, 40.43 32.75, 68.77 0.15 M0.28 85.04 C22.09 59.95, 43.9 34.86, 74.41 -0.24 M0.28 85.04 C21.01 61.19, 41.74 37.35, 74.41 -0.24 M0.01 91.44 C25.81 61.77, 51.6 32.1, 79.4 0.12 M0.01 91.44 C20.52 67.85, 41.02 44.27, 79.4 0.12 M-0.25 97.84 C33.67 58.82, 67.59 19.8, 85.04 -0.28 M-0.25 97.84 C20.29 74.22, 40.82 50.59, 85.04 -0.28 M0.15 103.48 C24.96 74.93, 49.78 46.38, 90.03 0.08 M0.15 103.48 C20.68 79.86, 41.21 56.24, 90.03 0.08 M-0.11 109.88 C21.9 84.55, 43.92 59.22, 95.67 -0.31 M-0.11 109.88 C25.72 80.16, 51.55 50.45, 95.67 -0.31 M0.28 115.52 C28.23 83.37, 56.18 51.22, 100.66 0.05 M0.28 115.52 C32.02 79.01, 63.76 42.49, 100.66 0.05 M0.02 121.92 C24.98 93.21, 49.94 64.49, 106.3 -0.34 M0.02 121.92 C29.71 87.77, 59.4 53.61, 106.3 -0.34 M-0.24 128.32 C38.73 83.48, 77.7 38.65, 111.29 0.02 M-0.24 128.32 C31.67 91.6, 63.58 54.89, 111.29 0.02 M0.15 133.96 C41.21 86.73, 82.27 39.5, 116.27 0.38 M0.15 133.96 C39.15 89.1, 78.14 44.24, 116.27 0.38 M-0.11 140.36 C36.92 97.76, 73.96 55.15, 121.92 -0.02 M-0.11 140.36 C43.31 90.41, 86.73 40.46, 121.92 -0.02 M0.29 146 C28.64 113.39, 56.99 80.77, 126.91 0.34 M0.29 146 C32.99 108.38, 65.69 70.76, 126.91 0.34 M4.62 147.11 C49.63 95.33, 94.65 43.54, 132.55 -0.05 M4.62 147.11 C55.28 88.83, 105.94 30.56, 132.55 -0.05 M9.6 147.47 C58.29 91.47, 106.97 35.47, 137.54 0.31 M9.6 147.47 C37.62 115.24, 65.64 83.01, 137.54 0.31 M15.25 147.08 C53.98 102.52, 92.72 57.96, 143.18 -0.09 M15.25 147.08 C57.54 98.43, 99.83 49.78, 143.18 -0.09 M20.23 147.44 C52.87 109.9, 85.5 72.36, 148.17 0.27 M20.23 147.44 C64.18 96.88, 108.13 46.33, 148.17 0.27 M25.88 147.05 C72.09 93.88, 118.3 40.72, 153.81 -0.12 M25.88 147.05 C68.93 97.52, 111.98 47.99, 153.81 -0.12 M30.86 147.41 C78.97 92.07, 127.07 36.73, 158.8 0.24 M30.86 147.41 C70.57 101.73, 110.27 56.06, 158.8 0.24 M36.51 147.01 C78.61 98.58, 120.71 50.15, 164.44 -0.16 M36.51 147.01 C67.72 111.1, 98.94 75.19, 164.44 -0.16 M41.49 147.37 C88.66 93.12, 135.82 38.86, 169.43 0.2 M41.49 147.37 C86.42 95.69, 131.34 44.01, 169.43 0.2 M46.48 147.73 C72.86 117.38, 99.25 87.03, 175.07 -0.19 M46.48 147.73 C89.72 97.99, 132.96 48.25, 175.07 -0.19 M52.12 147.34 C97.57 95.06, 143.01 42.78, 180.06 0.17 M52.12 147.34 C84.21 110.43, 116.29 73.52, 180.06 0.17 M57.11 147.7 C106.63 90.73, 156.16 33.76, 185.7 -0.23 M57.11 147.7 C102.07 95.98, 147.03 44.26, 185.7 -0.23 M62.75 147.3 C108.15 95.08, 153.54 42.86, 190.69 0.13 M62.75 147.3 C107.17 96.21, 151.59 45.11, 190.69 0.13 M67.74 147.66 C101.37 108.98, 134.99 70.3, 196.33 -0.26 M67.74 147.66 C102.93 107.18, 138.12 66.7, 196.33 -0.26 M73.38 147.27 C109.27 105.99, 145.15 64.71, 200 1.61 M73.38 147.27 C115.34 99, 157.31 50.73, 200 1.61 M78.37 147.63 C105.52 116.4, 132.66 85.18, 199.74 8.01 M78.37 147.63 C120.97 98.62, 163.57 49.62, 199.74 8.01 M84.01 147.23 C125.1 99.97, 166.19 52.7, 200.14 13.65 M84.01 147.23 C112.77 114.16, 141.52 81.08, 200.14 13.65 M89 147.59 C117.59 114.7, 146.19 81.81, 199.88 20.05 M89 147.59 C119.75 112.22, 150.49 76.86, 199.88 20.05 M94.64 147.2 C123.78 113.69, 152.91 80.18, 200.27 25.69 M94.64 147.2 C125.61 111.58, 156.57 75.96, 200.27 25.69 M99.63 147.56 C134.5 107.45, 169.36 67.34, 200.01 32.09 M99.63 147.56 C119.86 124.29, 140.09 101.02, 200.01 32.09 M105.27 147.16 C129.45 119.35, 153.63 91.54, 199.75 38.49 M105.27 147.16 C125.91 123.43, 146.55 99.69, 199.75 38.49 M110.26 147.52 C134.72 119.39, 159.17 91.26, 200.14 44.13 M110.26 147.52 C139.53 113.85, 168.8 80.18, 200.14 44.13 M115.9 147.13 C149.3 108.72, 182.69 70.31, 199.88 50.53 M115.9 147.13 C143.37 115.54, 170.83 83.94, 199.88 50.53 M120.89 147.49 C137.48 128.4, 154.07 109.32, 200.27 56.17 M120.89 147.49 C145.09 119.65, 169.29 91.82, 200.27 56.17 M126.53 147.1 C148.67 121.63, 170.81 96.16, 200.01 62.57 M126.53 147.1 C146.79 123.79, 167.05 100.49, 200.01 62.57 M131.52 147.46 C154.16 121.41, 176.81 95.36, 199.75 68.97 M131.52 147.46 C148.39 128.05, 165.26 108.64, 199.75 68.97 M137.16 147.06 C153.8 127.92, 170.44 108.79, 200.15 74.61 M137.16 147.06 C154.43 127.2, 171.7 107.33, 200.15 74.61 M142.15 147.42 C154.35 133.39, 166.55 119.35, 199.88 81.01 M142.15 147.42 C160.3 126.54, 178.45 105.66, 199.88 81.01 M147.79 147.03 C162.5 130.11, 177.21 113.19, 200.28 86.65 M147.79 147.03 C162.77 129.79, 177.75 112.56, 200.28 86.65 M152.78 147.39 C162.93 135.71, 173.09 124.03, 200.02 93.05 M152.78 147.39 C167.93 129.96, 183.07 112.54, 200.02 93.05 M158.42 146.99 C168.37 135.55, 178.31 124.12, 199.76 99.45 M158.42 146.99 C167.74 136.27, 177.06 125.55, 199.76 99.45 M163.41 147.35 C174.69 134.37, 185.97 121.4, 200.15 105.09 M163.41 147.35 C175.67 133.25, 187.93 119.15, 200.15 105.09 M168.4 147.71 C178.88 135.65, 189.37 123.59, 199.89 111.49 M168.4 147.71 C179.85 134.54, 191.3 121.37, 199.89 111.49 M174.04 147.32 C180.58 139.8, 187.11 132.28, 200.28 117.13 M174.04 147.32 C181.24 139.04, 188.44 130.76, 200.28 117.13 M179.03 147.68 C184.11 141.83, 189.19 135.98, 200.02 123.53 M179.03 147.68 C185.79 139.9, 192.55 132.12, 200.02 123.53 M184.67 147.28 C190.69 140.36, 196.71 133.43, 199.76 129.92 M184.67 147.28 C189.44 141.79, 194.22 136.3, 199.76 129.92 M189.66 147.64 C193.33 143.42, 197 139.2, 200.16 135.57 M189.66 147.64 C192.56 144.31, 195.46 140.97, 200.16 135.57 M195.3 147.25 C196.73 145.6, 198.17 143.95, 199.89 141.97 M195.3 147.25 C196.62 145.73, 197.94 144.22, 199.89 141.97" stroke="#82c91e" stroke-width="0.5" fill="none"></path><path d="M0 0 C46.44 0, 92.89 0, 200 0 M0 0 C48.46 0, 96.92 0, 200 0 M200 0 C200 33.23, 200 66.46, 200 147 M200 0 C200 54.99, 200 109.98, 200 147 M200 147 C124.56 147, 49.13 147, 0 147 M200 147 C158.02 147, 116.04 147, 0 147 M0 147 C0 114.44, 0 81.89, 0 0 M0 147 C0 99.58, 0 52.17, 0 0" stroke="#5c940d" stroke-width="1" fill="none"></path></g><g transform="translate(556.4316658134402 20) rotate(0 74.2314453125 17.5)"><text x="0" y="0" font-family="Virgil, Segoe UI Emoji" font-size="28px" fill="#000000" text-anchor="start" style="white-space: pre;" direction="ltr" dominant-baseline="text-before-edge">Zeebe broker</text></g><g stroke-linecap="round" transform="translate(566.9316658134402 73.5) rotate(0 79.5 34)"><path d="M2.68 6.31 C2.68 6.31, 2.68 6.31, 2.68 6.31 M2.68 6.31 C2.68 6.31, 2.68 6.31, 2.68 6.31 M0.45 14.97 C3.01 12.03, 5.57 9.08, 12.92 0.63 M0.45 14.97 C4.86 9.89, 9.28 4.82, 12.92 0.63 M0.85 20.61 C4.9 15.95, 8.96 11.28, 18.56 0.23 M0.85 20.61 C5.73 15, 10.6 9.39, 18.56 0.23 M0.59 27.01 C6.07 20.7, 11.56 14.38, 23.55 0.59 M0.59 27.01 C8.81 17.55, 17.04 8.08, 23.55 0.59 M0.32 33.41 C11.6 20.44, 22.88 7.46, 29.19 0.2 M0.32 33.41 C8.89 23.56, 17.45 13.71, 29.19 0.2 M0.72 39.05 C8.29 30.34, 15.87 21.62, 34.18 0.56 M0.72 39.05 C9.09 29.41, 17.47 19.78, 34.18 0.56 M0.46 45.45 C13.04 30.97, 25.63 16.49, 39.82 0.16 M0.46 45.45 C12.32 31.8, 24.19 18.15, 39.82 0.16 M0.85 51.09 C14.89 34.95, 28.92 18.8, 44.81 0.52 M0.85 51.09 C14.49 35.4, 28.13 19.71, 44.81 0.52 M1.25 56.73 C20.52 34.56, 39.8 12.38, 50.45 0.13 M1.25 56.73 C19.54 35.69, 37.83 14.65, 50.45 0.13 M2.95 60.87 C16.94 44.78, 30.93 28.69, 55.44 0.49 M2.95 60.87 C17.2 44.48, 31.45 28.09, 55.44 0.49 M5.32 64.25 C20.86 46.36, 36.41 28.48, 61.08 0.1 M5.32 64.25 C24.4 42.29, 43.48 20.34, 61.08 0.1 M8.99 66.12 C21.19 52.09, 33.38 38.06, 66.07 0.46 M8.99 66.12 C27.26 45.09, 45.54 24.07, 66.07 0.46 M13.32 67.23 C33.75 43.73, 54.18 20.23, 71.71 0.06 M13.32 67.23 C25.05 53.74, 36.78 40.24, 71.71 0.06 M17.65 68.35 C35.56 47.74, 53.47 27.14, 76.7 0.42 M17.65 68.35 C35.12 48.25, 52.6 28.15, 76.7 0.42 M22.64 68.71 C38.82 50.09, 55.01 31.47, 82.34 0.03 M22.64 68.71 C39.88 48.87, 57.12 29.04, 82.34 0.03 M28.28 68.31 C44.51 49.64, 60.75 30.97, 87.33 0.39 M28.28 68.31 C45.48 48.52, 62.69 28.73, 87.33 0.39 M33.27 68.67 C45.52 54.58, 57.77 40.48, 92.97 -0.01 M33.27 68.67 C51.18 48.06, 69.1 27.46, 92.97 -0.01 M38.91 68.28 C54.54 50.3, 70.17 32.32, 97.96 0.35 M38.91 68.28 C53.8 51.15, 68.69 34.02, 97.96 0.35 M43.9 68.64 C56.55 54.08, 69.21 39.52, 103.6 -0.04 M43.9 68.64 C60.74 49.26, 77.58 29.89, 103.6 -0.04 M49.54 68.24 C61.69 54.27, 73.84 40.29, 108.59 0.32 M49.54 68.24 C71.82 42.61, 94.1 16.98, 108.59 0.32 M54.53 68.6 C69.33 51.57, 84.14 34.54, 114.23 -0.08 M54.53 68.6 C68.58 52.44, 82.62 36.29, 114.23 -0.08 M60.17 68.21 C73.64 52.71, 87.12 37.21, 119.22 0.28 M60.17 68.21 C79 46.55, 97.82 24.89, 119.22 0.28 M65.16 68.57 C87.05 43.38, 108.94 18.2, 124.86 -0.11 M65.16 68.57 C83.86 47.06, 102.55 25.55, 124.86 -0.11 M70.8 68.17 C86.09 50.59, 101.37 33.01, 129.85 0.25 M70.8 68.17 C93.34 42.24, 115.88 16.31, 129.85 0.25 M75.79 68.53 C94.8 46.66, 113.81 24.79, 135.49 -0.15 M75.79 68.53 C89.07 53.25, 102.36 37.97, 135.49 -0.15 M81.43 68.14 C94.52 53.09, 107.6 38.04, 140.48 0.21 M81.43 68.14 C100.58 46.11, 119.74 24.08, 140.48 0.21 M86.42 68.5 C106.88 44.96, 127.35 21.42, 144.81 1.33 M86.42 68.5 C99.45 53.51, 112.47 38.53, 144.81 1.33 M92.06 68.1 C105.75 52.36, 119.43 36.62, 149.8 1.69 M92.06 68.1 C112.73 44.33, 133.4 20.55, 149.8 1.69 M97.05 68.46 C108.72 55.04, 120.39 41.62, 153.47 3.56 M97.05 68.46 C115.55 47.18, 134.05 25.9, 153.47 3.56 M102.04 68.82 C114.16 54.87, 126.29 40.93, 156.49 6.18 M102.04 68.82 C120.95 47.07, 139.85 25.32, 156.49 6.18 M107.68 68.43 C124.27 49.34, 140.87 30.25, 158.2 10.32 M107.68 68.43 C122.98 50.83, 138.28 33.23, 158.2 10.32 M112.67 68.79 C126.31 53.09, 139.96 37.39, 159.25 15.21 M112.67 68.79 C122.43 57.55, 132.2 46.32, 159.25 15.21 M118.31 68.4 C128.78 56.35, 139.25 44.3, 159.64 20.85 M118.31 68.4 C129.36 55.69, 140.4 42.98, 159.64 20.85 M123.3 68.76 C136.26 53.85, 149.22 38.94, 159.38 27.25 M123.3 68.76 C134.7 55.64, 146.11 42.52, 159.38 27.25 M128.94 68.36 C135.6 60.7, 142.27 53.03, 159.77 32.89 M128.94 68.36 C137.99 57.95, 147.04 47.54, 159.77 32.89 M133.93 68.72 C142.36 59.02, 150.79 49.33, 159.51 39.29 M133.93 68.72 C141.35 60.18, 148.78 51.63, 159.51 39.29 M139.57 68.33 C146.42 60.44, 153.28 52.56, 159.25 45.68 M139.57 68.33 C143.64 63.64, 147.71 58.96, 159.25 45.68 M145.21 67.93 C149.67 62.8, 154.13 57.68, 159.65 51.33 M145.21 67.93 C148.23 64.46, 151.25 60.98, 159.65 51.33 M152.17 66.03 C153.99 63.93, 155.82 61.83, 158.73 58.48 M152.17 66.03 C154.7 63.11, 157.23 60.2, 158.73 58.48" stroke="#fd7e14" stroke-width="0.5" fill="none"></path><path d="M17 0 C50.11 0, 83.23 0, 142 0 M17 0 C42.14 0, 67.28 0, 142 0 M142 0 C153.33 0, 159 5.67, 159 17 M142 0 C153.33 0, 159 5.67, 159 17 M159 17 C159 24.51, 159 32.02, 159 51 M159 17 C159 30.34, 159 43.68, 159 51 M159 51 C159 62.33, 153.33 68, 142 68 M159 51 C159 62.33, 153.33 68, 142 68 M142 68 C94.85 68, 47.71 68, 17 68 M142 68 C115.76 68, 89.53 68, 17 68 M17 68 C5.67 68, 0 62.33, 0 51 M17 68 C5.67 68, 0 62.33, 0 51 M0 51 C0 40.18, 0 29.37, 0 17 M0 51 C0 43.14, 0 35.27, 0 17 M0 17 C0 5.67, 5.67 0, 17 0 M0 17 C0 5.67, 5.67 0, 17 0" stroke="#d9480f" stroke-width="1" fill="none"></path></g><g transform="translate(612.6162361259402 82.5) rotate(0 33.3154296875 25)"><text x="33.3154296875" y="0" font-family="Virgil, Segoe UI Emoji" font-size="20px" fill="#d9480f" text-anchor="middle" style="white-space: pre;" direction="ltr" dominant-baseline="text-before-edge">debug</text><text x="33.3154296875" y="25" font-family="Virgil, Segoe UI Emoji" font-size="20px" fill="#d9480f" text-anchor="middle" style="white-space: pre;" direction="ltr" dominant-baseline="text-before-edge">exporter</text></g><g stroke-linecap="round"><g transform="translate(416.4316658134402 121.5) rotate(0 61.619493963608306 -0.6194939636082495)"><path d="M0 0 C20.54 -0.21, 102.7 -1.03, 123.24 -1.24 M0 0 C20.54 -0.21, 102.7 -1.03, 123.24 -1.24" stroke="#1864ab" stroke-width="1" fill="none"></path></g><g transform="translate(416.4316658134402 121.5) rotate(0 61.619493963608306 -0.6194939636082495)"><path d="M95.15 9.3 C102.99 6.36, 110.83 3.42, 123.24 -1.24 M95.15 9.3 C102.33 6.61, 109.5 3.92, 123.24 -1.24" stroke="#1864ab" stroke-width="1" fill="none"></path></g><g transform="translate(416.4316658134402 121.5) rotate(0 61.619493963608306 -0.6194939636082495)"><path d="M94.95 -11.22 C102.84 -8.43, 110.74 -5.65, 123.24 -1.24 M94.95 -11.22 C102.17 -8.67, 109.4 -6.12, 123.24 -1.24" stroke="#1864ab" stroke-width="1" fill="none"></path></g></g><mask></mask><g transform="translate(458.9316658134402 82) rotate(0 17.7685546875 12.5)"><text x="0" y="0" font-family="Virgil, Segoe UI Emoji" font-size="20px" fill="#1864ab" text-anchor="start" style="white-space: pre;" direction="ltr" dominant-baseline="text-before-edge">grpc</text></g><g stroke-linecap="round" transform="translate(220.4316658134402 179) rotate(0 106.5 19)"><path d="M0 0 C0 0, 0 0, 0 0 M0 0 C0 0, 0 0, 0 0 M-0.26 6.4 C0.91 5.05, 2.07 3.71, 4.99 0.36 M-0.26 6.4 C1.12 4.81, 2.5 3.22, 4.99 0.36 M0.13 12.04 C2.73 9.06, 5.32 6.07, 10.63 -0.03 M0.13 12.04 C3.29 8.41, 6.44 4.78, 10.63 -0.03 M-0.13 18.44 C4.65 12.94, 9.44 7.43, 15.62 0.33 M-0.13 18.44 C3.44 14.34, 7 10.24, 15.62 0.33 M0.27 24.08 C4.81 18.85, 9.36 13.62, 21.26 -0.07 M0.27 24.08 C5.98 17.51, 11.69 10.94, 21.26 -0.07 M0 30.48 C8.87 20.28, 17.74 10.08, 26.25 0.29 M0 30.48 C6.24 23.31, 12.48 16.13, 26.25 0.29 M-0.26 36.88 C6.34 29.29, 12.93 21.71, 31.89 -0.1 M-0.26 36.88 C10.51 24.49, 21.28 12.1, 31.89 -0.1 M4.07 37.99 C17.06 23.06, 30.04 8.12, 36.88 0.26 M4.07 37.99 C11.69 29.23, 19.3 20.47, 36.88 0.26 M9.06 38.35 C21.94 23.53, 34.83 8.71, 42.52 -0.14 M9.06 38.35 C19 26.92, 28.95 15.48, 42.52 -0.14 M14.7 37.96 C21.3 30.37, 27.9 22.78, 47.51 0.22 M14.7 37.96 C22.62 28.85, 30.54 19.74, 47.51 0.22 M19.69 38.32 C29.12 27.47, 38.55 16.62, 53.15 -0.17 M19.69 38.32 C31.86 24.32, 44.03 10.32, 53.15 -0.17 M25.33 37.92 C36.19 25.44, 47.05 12.95, 58.14 0.19 M25.33 37.92 C38.26 23.06, 51.18 8.19, 58.14 0.19 M30.32 38.28 C42.84 23.88, 55.36 9.49, 63.78 -0.21 M30.32 38.28 C41.58 25.33, 52.85 12.37, 63.78 -0.21 M35.96 37.89 C43.03 29.76, 50.1 21.63, 68.77 0.15 M35.96 37.89 C46.3 26, 56.63 14.11, 68.77 0.15 M40.95 38.25 C50.77 26.95, 60.59 15.66, 74.41 -0.24 M40.95 38.25 C48.13 29.99, 55.31 21.73, 74.41 -0.24 M46.59 37.85 C57.67 25.11, 68.75 12.36, 79.4 0.12 M46.59 37.85 C57.32 25.52, 68.04 13.18, 79.4 0.12 M51.58 38.21 C59.1 29.56, 66.62 20.91, 85.04 -0.28 M51.58 38.21 C64.74 23.07, 77.9 7.93, 85.04 -0.28 M57.22 37.82 C64.91 28.97, 72.6 20.13, 90.03 0.08 M57.22 37.82 C65.38 28.43, 73.54 19.05, 90.03 0.08 M62.21 38.18 C72.45 26.4, 82.69 14.62, 95.67 -0.31 M62.21 38.18 C71.09 27.97, 79.97 17.75, 95.67 -0.31 M67.85 37.79 C77.53 26.66, 87.2 15.54, 100.66 0.05 M67.85 37.79 C80.86 22.83, 93.86 7.87, 100.66 0.05 M72.84 38.15 C80.48 29.36, 88.11 20.58, 106.3 -0.34 M72.84 38.15 C80.2 29.68, 87.57 21.21, 106.3 -0.34 M78.48 37.75 C90.35 24.1, 102.21 10.46, 111.29 0.02 M78.48 37.75 C91.04 23.3, 103.6 8.86, 111.29 0.02 M83.47 38.11 C91.19 29.23, 98.92 20.34, 116.27 0.38 M83.47 38.11 C91.47 28.92, 99.46 19.72, 116.27 0.38 M89.12 37.72 C99.96 25.24, 110.8 12.77, 121.92 -0.02 M89.12 37.72 C99.53 25.73, 109.95 13.74, 121.92 -0.02 M94.1 38.08 C104.77 25.81, 115.43 13.54, 126.91 0.34 M94.1 38.08 C104.58 26.02, 115.06 13.97, 126.91 0.34 M99.75 37.68 C111.24 24.45, 122.74 11.23, 132.55 -0.05 M99.75 37.68 C106.55 29.85, 113.36 22.02, 132.55 -0.05 M104.73 38.04 C112.86 28.69, 120.99 19.34, 137.54 0.31 M104.73 38.04 C112.19 29.46, 119.65 20.88, 137.54 0.31 M109.72 38.4 C117.2 29.8, 124.68 21.19, 143.18 -0.09 M109.72 38.4 C121.62 24.71, 133.53 11.01, 143.18 -0.09 M115.36 38.01 C125.43 26.43, 135.49 14.85, 148.17 0.27 M115.36 38.01 C126.66 25.02, 137.95 12.02, 148.17 0.27 M120.35 38.37 C127.2 30.49, 134.05 22.61, 153.81 -0.12 M120.35 38.37 C132.49 24.4, 144.63 10.43, 153.81 -0.12 M125.99 37.97 C137.77 24.42, 149.55 10.88, 158.8 0.24 M125.99 37.97 C134 28.76, 142 19.56, 158.8 0.24 M130.98 38.33 C137.75 30.55, 144.52 22.76, 164.44 -0.16 M130.98 38.33 C141.89 25.78, 152.8 13.23, 164.44 -0.16 M136.62 37.94 C143.65 29.86, 150.67 21.77, 169.43 0.2 M136.62 37.94 C146.37 26.72, 156.13 15.5, 169.43 0.2 M141.61 38.3 C154.25 23.76, 166.88 9.23, 175.07 -0.19 M141.61 38.3 C149.62 29.08, 157.63 19.87, 175.07 -0.19 M147.25 37.9 C154.97 29.03, 162.68 20.15, 180.06 0.17 M147.25 37.9 C156.16 27.66, 165.07 17.41, 180.06 0.17 M152.24 38.26 C163.79 24.97, 175.35 11.68, 185.7 -0.23 M152.24 38.26 C165.42 23.11, 178.59 7.95, 185.7 -0.23 M157.88 37.87 C168.98 25.11, 180.07 12.34, 190.69 0.13 M157.88 37.87 C168.75 25.37, 179.61 12.87, 190.69 0.13 M162.87 38.23 C175.34 23.88, 187.82 9.53, 196.33 -0.26 M162.87 38.23 C175.49 23.71, 188.11 9.2, 196.33 -0.26 M168.51 37.83 C181.38 23.03, 194.26 8.22, 201.32 0.1 M168.51 37.83 C176.3 28.87, 184.1 19.91, 201.32 0.1 M173.5 38.19 C186.25 23.53, 199 8.86, 206.96 -0.3 M173.5 38.19 C182.67 27.64, 191.85 17.09, 206.96 -0.3 M179.14 37.8 C186.36 29.5, 193.58 21.2, 211.95 0.06 M179.14 37.8 C190.58 24.64, 202.02 11.48, 211.95 0.06 M184.13 38.16 C194.05 26.74, 203.98 15.33, 213 4.95 M184.13 38.16 C191.82 29.31, 199.51 20.47, 213 4.95 M189.77 37.77 C199.14 26.99, 208.5 16.22, 213.39 10.6 M189.77 37.77 C194.96 31.79, 200.16 25.82, 213.39 10.6 M194.76 38.13 C200.05 32.04, 205.35 25.95, 213.13 16.99 M194.76 38.13 C199.03 33.21, 203.3 28.3, 213.13 16.99 M200.4 37.73 C203.53 34.14, 206.65 30.55, 212.87 23.39 M200.4 37.73 C202.93 34.83, 205.46 31.92, 212.87 23.39 M205.39 38.09 C207.71 35.43, 210.02 32.76, 213.26 29.03 M205.39 38.09 C208.13 34.94, 210.86 31.8, 213.26 29.03 M211.03 37.7 C211.55 37.1, 212.07 36.5, 213 35.43 M211.03 37.7 C211.52 37.14, 212 36.58, 213 35.43" stroke="#82c91e" stroke-width="0.5" fill="none"></path><path d="M0 0 C48.43 0, 96.85 0, 213 0 M0 0 C43.6 0, 87.21 0, 213 0 M213 0 C213 11.44, 213 22.89, 213 38 M213 0 C213 8.7, 213 17.39, 213 38 M213 38 C161.44 38, 109.89 38, 0 38 M213 38 C131.46 38, 49.92 38, 0 38 M0 38 C0 27.5, 0 16.99, 0 0 M0 38 C0 26.17, 0 14.34, 0 0" stroke="#5c940d" stroke-width="1" fill="none"></path></g><g transform="translate(257.356220140966 183.7610120727835) rotate(0 69.1455078125 12.5)"><text x="0" y="0" font-family="Virgil, Segoe UI Emoji" font-size="20px" fill="#000000" text-anchor="start" style="white-space: pre;" direction="ltr" dominant-baseline="text-before-edge">dev-ui dashboard</text></g><g stroke-linecap="round"><g transform="translate(440.2528206405972 215.5349197970529) rotate(0 105.93222242532897 -34.57720688033061)"><path d="M0 0 C30.59 -1.36, 148.24 3.37, 183.55 -8.15 C218.86 -19.68, 207.15 -58.99, 211.86 -69.15" stroke="#d9480f" stroke-width="1.5" fill="none" stroke-dasharray="8 9"></path></g><g transform="translate(440.2528206405972 215.5349197970529) rotate(0 105.93222242532897 -34.57720688033061)"><path d="M28.07 -10.59 C22.22 -8.38, 16.37 -6.18, 0 0" stroke="#d9480f" stroke-width="1.5" fill="none"></path></g><g transform="translate(440.2528206405972 215.5349197970529) rotate(0 105.93222242532897 -34.57720688033061)"><path d="M28.31 9.93 C22.41 7.86, 16.51 5.79, 0 0" stroke="#d9480f" stroke-width="1.5" fill="none"></path></g></g><mask></mask><g stroke-linecap="round"><g transform="translate(71.42637230383377 148.55090751479645) rotate(0 72.50264675480327 31.94642463741343)"><path d="M0 0 C2.84 9.32, -7.16 45.25, 17.01 55.9 C41.18 66.55, 123.67 62.56, 145.01 63.89 M0 0 C2.84 9.32, -7.16 45.25, 17.01 55.9 C41.18 66.55, 123.67 62.56, 145.01 63.89" stroke="#495057" stroke-width="1" fill="none"></path></g><g transform="translate(71.42637230383377 148.55090751479645) rotate(0 72.50264675480327 31.94642463741343)"><path d="M116.72 73.89 C127.35 70.13, 137.97 66.38, 145.01 63.89 M116.72 73.89 C127.4 70.12, 138.08 66.34, 145.01 63.89" stroke="#495057" stroke-width="1" fill="none"></path></g><g transform="translate(71.42637230383377 148.55090751479645) rotate(0 72.50264675480327 31.94642463741343)"><path d="M116.91 53.37 C127.47 57.32, 138.02 61.28, 145.01 63.89 M116.91 53.37 C127.52 57.34, 138.13 61.32, 145.01 63.89" stroke="#495057" stroke-width="1" fill="none"></path></g></g><mask></mask><g transform="translate(134.812171849832 205) rotate(0 15.556640625 12.5)"><text x="0" y="0" font-family="Virgil, Segoe UI Emoji" font-size="20px" fill="#495057" text-anchor="start" style="white-space: pre;" direction="ltr" dominant-baseline="text-before-edge">http</text></g><g transform="translate(530.3462537448789 213.5242717310698) rotate(0 18.056640625 25)"><text x="0" y="0" font-family="Virgil, Segoe UI Emoji" font-size="20px" fill="#d9480f" text-anchor="start" style="white-space: pre;" direction="ltr" dominant-baseline="text-before-edge">http </text><text x="0" y="25" font-family="Virgil, Segoe UI Emoji" font-size="20px" fill="#d9480f" text-anchor="start" style="white-space: pre;" direction="ltr" dominant-baseline="text-before-edge"></text></g></svg>