<svg version="1.1" xmlns="http://www.w3.org/2000/svg" viewBox="0 0 756.4316658134402 276" width="756.4316658134402" height="276">
  <!-- svg-source:excalidraw -->
  
  <defs>
    <style>
      @font-face {
        font-family: "Virgil";
        src: url("https://excalidraw.com/Virgil.woff2");
      }
      @font-face {
        font-family: "Cascadia";
        src: url("https://excalidraw.com/Cascadia.woff2");
      }
    </style>
  </defs>
  <rect x="0" y="0" width="756.4316658134402" height="276" fill="#ffffff"></rect><g stroke-linecap="round" transform="translate(36.216691742316925 52.15702522337142) rotate(343.58593648075345 18.067222500388937 18.683150540174893)"><path d="M36.13 18.68 C36.13 19.76, 36.04 20.86, 35.86 21.93 C35.68 22.99, 35.4 24.06, 35.04 25.07 C34.69 26.09, 34.24 27.09, 33.71 28.02 C33.19 28.96, 32.58 29.86, 31.91 30.69 C31.24 31.52, 30.48 32.3, 29.68 33 C28.88 33.69, 28.01 34.32, 27.1 34.86 C26.2 35.4, 25.23 35.87, 24.25 36.24 C23.26 36.61, 22.23 36.89, 21.2 37.08 C20.17 37.27, 19.11 37.37, 18.07 37.37 C17.02 37.37, 15.96 37.27, 14.93 37.08 C13.9 36.89, 12.87 36.61, 11.89 36.24 C10.91 35.87, 9.94 35.4, 9.03 34.86 C8.13 34.32, 7.25 33.69, 6.45 33 C5.65 32.3, 4.9 31.52, 4.23 30.69 C3.55 29.86, 2.94 28.96, 2.42 28.02 C1.9 27.09, 1.45 26.09, 1.09 25.07 C0.73 24.06, 0.46 22.99, 0.27 21.93 C0.09 20.86, 0 19.76, 0 18.68 C0 17.6, 0.09 16.5, 0.27 15.44 C0.46 14.37, 0.73 13.31, 1.09 12.29 C1.45 11.28, 1.9 10.28, 2.42 9.34 C2.94 8.41, 3.55 7.5, 4.23 6.67 C4.9 5.85, 5.65 5.07, 6.45 4.37 C7.25 3.68, 8.13 3.04, 9.03 2.5 C9.94 1.96, 10.91 1.5, 11.89 1.13 C12.87 0.76, 13.9 0.47, 14.93 0.28 C15.96 0.1, 17.02 0, 18.07 0 C19.11 0, 20.17 0.1, 21.2 0.28 C22.23 0.47, 23.26 0.76, 24.25 1.13 C25.23 1.5, 26.2 1.96, 27.1 2.5 C28.01 3.04, 28.88 3.68, 29.68 4.37 C30.48 5.07, 31.24 5.85, 31.91 6.67 C32.58 7.5, 33.19 8.41, 33.71 9.34 C34.24 10.28, 34.69 11.28, 35.04 12.29 C35.4 13.31, 35.68 14.37, 35.86 15.44 C36.04 16.5, 36.09 18.14, 36.13 18.68 C36.18 19.22, 36.18 18.14, 36.13 18.68" stroke="#495057" stroke-width="2" fill="none"></path></g><g stroke-linecap="round"><g transform="translate(38.05921362709205 72.95015434217783) rotate(343.58593648075345 -3.969738448492251 3.349481701571108)"><path d="M0 0 C0.02 -0.71, 0.91 -3.63, 0.14 -4.24 C-0.64 -4.86, -3.26 -4.7, -4.65 -3.7 C-6.05 -2.69, -7.76 -0.05, -8.21 1.78 C-8.67 3.6, -8.21 5.86, -7.39 7.25 C-6.57 8.65, -4.54 9.58, -3.28 10.13 C-2.03 10.68, -0.41 12.23, 0.14 10.54 C0.68 8.85, 0.02 1.76, 0 0 M0 0 C0.02 -0.71, 0.91 -3.63, 0.14 -4.24 C-0.64 -4.86, -3.26 -4.7, -4.65 -3.7 C-6.05 -2.69, -7.76 -0.05, -8.21 1.78 C-8.67 3.6, -8.21 5.86, -7.39 7.25 C-6.57 8.65, -4.54 9.58, -3.28 10.13 C-2.03 10.68, -0.41 12.23, 0.14 10.54 C0.68 8.85, 0.02 1.76, 0 0" stroke="#495057" stroke-width="2" fill="none"></path></g></g><g stroke-linecap="round"><g transform="translate(73.55665747182991 60.26130507756773) rotate(343.58593648075345 3.877917335853624 3.3494817015711362)"><path d="M0 0 C-0.02 -0.71, -0.89 -3.63, -0.13 -4.24 C0.62 -4.86, 3.19 -4.7, 4.55 -3.7 C5.91 -2.69, 7.58 -0.05, 8.02 1.78 C8.47 3.6, 8.02 5.86, 7.22 7.25 C6.42 8.65, 4.43 9.58, 3.21 10.13 C1.98 10.68, 0.4 12.23, -0.13 10.54 C-0.67 8.85, -0.02 1.76, 0 0 M0 0 C-0.02 -0.71, -0.89 -3.63, -0.13 -4.24 C0.62 -4.86, 3.19 -4.7, 4.55 -3.7 C5.91 -2.69, 7.58 -0.05, 8.02 1.78 C8.47 3.6, 8.02 5.86, 7.22 7.25 C6.42 8.65, 4.43 9.58, 3.21 10.13 C1.98 10.68, 0.4 12.23, -0.13 10.54 C-0.67 8.85, -0.02 1.76, 0 0" stroke="#495057" stroke-width="2" fill="none"></path></g></g><g stroke-linecap="round"><g transform="translate(29.65162452102345 64.15425291553515) rotate(343.58593648075345 20.31650754764462 -10.744522471822194)"><path d="M0 0 C0.14 -1.82, -0.82 -7.73, 0.82 -10.95 C2.46 -14.17, 6.57 -17.54, 9.85 -19.3 C13.14 -21.06, 16.9 -21.49, 20.53 -21.49 C24.16 -21.49, 28.72 -20.67, 31.62 -19.3 C34.51 -17.93, 36.5 -15.33, 37.91 -13.28 C39.33 -11.22, 39.62 -9.01, 40.1 -6.98 C40.58 -4.95, 40.67 -2.08, 40.79 -1.09 M0 0 C0.14 -1.82, -0.82 -7.73, 0.82 -10.95 C2.46 -14.17, 6.57 -17.54, 9.85 -19.3 C13.14 -21.06, 16.9 -21.49, 20.53 -21.49 C24.16 -21.49, 28.72 -20.67, 31.62 -19.3 C34.51 -17.93, 36.5 -15.33, 37.91 -13.28 C39.33 -11.22, 39.62 -9.01, 40.1 -6.98 C40.58 -4.95, 40.67 -2.08, 40.79 -1.09" stroke="#495057" stroke-width="2" fill="none"></path></g></g><g stroke-linecap="round"><g transform="translate(38.06817379355277 81.82685337654789) rotate(343.58593648075345 7.664882272892271 3.6550885374238646)"><path d="M0 0 C0.23 0.62, 0.51 2.65, 1.37 3.71 C2.22 4.78, 3.58 5.82, 5.13 6.41 C6.68 7, 8.98 7.48, 10.68 7.25 C12.38 7.03, 14.55 5.43, 15.33 5.06 M0 0 C0.23 0.62, 0.51 2.65, 1.37 3.71 C2.22 4.78, 3.58 5.82, 5.13 6.41 C6.68 7, 8.98 7.48, 10.68 7.25 C12.38 7.03, 14.55 5.43, 15.33 5.06" stroke="#495057" stroke-width="2" fill="none"></path></g></g><g stroke-linecap="round" transform="translate(51.74311184813928 82.03155131797644) rotate(343.58593648075345 3.284949545525251 1.5740383238975255)"><path d="M6.57 1.57 C6.57 1.67, 6.55 1.76, 6.52 1.85 C6.49 1.94, 6.44 2.03, 6.37 2.11 C6.31 2.2, 6.22 2.28, 6.13 2.36 C6.03 2.44, 5.92 2.52, 5.8 2.59 C5.68 2.66, 5.54 2.72, 5.4 2.78 C5.25 2.84, 5.09 2.89, 4.93 2.94 C4.76 2.98, 4.59 3.02, 4.41 3.05 C4.23 3.08, 4.04 3.11, 3.86 3.12 C3.67 3.14, 3.48 3.15, 3.28 3.15 C3.09 3.15, 2.9 3.14, 2.71 3.12 C2.53 3.11, 2.34 3.08, 2.16 3.05 C1.98 3.02, 1.81 2.98, 1.64 2.94 C1.48 2.89, 1.32 2.84, 1.17 2.78 C1.03 2.72, 0.89 2.66, 0.77 2.59 C0.65 2.52, 0.54 2.44, 0.44 2.36 C0.35 2.28, 0.26 2.2, 0.2 2.11 C0.13 2.03, 0.08 1.94, 0.05 1.85 C0.02 1.76, 0 1.67, 0 1.57 C0 1.48, 0.02 1.39, 0.05 1.3 C0.08 1.21, 0.13 1.12, 0.2 1.04 C0.26 0.95, 0.35 0.87, 0.44 0.79 C0.54 0.71, 0.65 0.63, 0.77 0.56 C0.89 0.49, 1.03 0.43, 1.17 0.37 C1.32 0.31, 1.48 0.26, 1.64 0.21 C1.81 0.17, 1.98 0.13, 2.16 0.09 C2.34 0.06, 2.53 0.04, 2.71 0.02 C2.9 0.01, 3.09 0, 3.28 0 C3.48 0, 3.67 0.01, 3.86 0.02 C4.04 0.04, 4.23 0.06, 4.41 0.09 C4.59 0.13, 4.76 0.17, 4.93 0.21 C5.09 0.26, 5.25 0.31, 5.4 0.37 C5.54 0.43, 5.68 0.49, 5.8 0.56 C5.92 0.63, 6.03 0.71, 6.13 0.79 C6.22 0.87, 6.31 0.95, 6.37 1.04 C6.44 1.12, 6.49 1.21, 6.52 1.3 C6.55 1.39, 6.56 1.53, 6.57 1.57 C6.58 1.62, 6.58 1.53, 6.57 1.57" stroke="#495057" stroke-width="2" fill="none"></path></g><g stroke-linecap="round"><g transform="translate(43.27977550009052 72.32788743136689) rotate(0 3.9640343991730447 -2.6340500183328572)"><path d="M0 0 C0.1 -0.6, 0.16 -2.72, 0.58 -3.59 C1.01 -4.46, 1.61 -5.03, 2.54 -5.2 C3.48 -5.37, 5.29 -5.21, 6.18 -4.61 C7.08 -4.02, 7.64 -2.12, 7.93 -1.62 M0 0 C0.1 -0.6, 0.16 -2.72, 0.58 -3.59 C1.01 -4.46, 1.61 -5.03, 2.54 -5.2 C3.48 -5.37, 5.29 -5.21, 6.18 -4.61 C7.08 -4.02, 7.64 -2.12, 7.93 -1.62" stroke="#495057" stroke-width="2" fill="none"></path></g></g><g stroke-linecap="round" transform="translate(27.696524376119896 99.97634610099158) rotate(0 27.68267240561596 16.625744943314544)"><path d="M0 0 C12.2 0, 24.4 0, 55.37 0 M0 0 C19.32 0, 38.64 0, 55.37 0 M55.37 0 C55.37 13.03, 55.37 26.07, 55.37 33.25 M55.37 0 C55.37 9.68, 55.37 19.35, 55.37 33.25 M55.37 33.25 C34 33.25, 12.63 33.25, 0 33.25 M55.37 33.25 C39.06 33.25, 22.76 33.25, 0 33.25 M0 33.25 C0 23.53, 0 13.81, 0 0 M0 33.25 C0 22.98, 0 12.7, 0 0" stroke="#495057" stroke-width="2" fill="none"></path></g><g stroke-linecap="round" transform="translate(52.872308566598804 113.24635816101113) rotate(0 2.7440549906441447 2.7440549906441447)"><path d="M5.49 2.74 C5.49 2.9, 5.47 3.06, 5.45 3.22 C5.42 3.38, 5.38 3.53, 5.32 3.68 C5.27 3.83, 5.2 3.98, 5.12 4.12 C5.04 4.25, 4.95 4.39, 4.85 4.51 C4.74 4.63, 4.63 4.74, 4.51 4.85 C4.39 4.95, 4.25 5.04, 4.12 5.12 C3.98 5.2, 3.83 5.27, 3.68 5.32 C3.53 5.38, 3.38 5.42, 3.22 5.45 C3.06 5.47, 2.9 5.49, 2.74 5.49 C2.59 5.49, 2.42 5.47, 2.27 5.45 C2.11 5.42, 1.95 5.38, 1.81 5.32 C1.66 5.27, 1.51 5.2, 1.37 5.12 C1.23 5.04, 1.1 4.95, 0.98 4.85 C0.86 4.74, 0.74 4.63, 0.64 4.51 C0.54 4.39, 0.45 4.25, 0.37 4.12 C0.29 3.98, 0.22 3.83, 0.17 3.68 C0.11 3.53, 0.07 3.38, 0.04 3.22 C0.01 3.06, 0 2.9, 0 2.74 C0 2.59, 0.01 2.42, 0.04 2.27 C0.07 2.11, 0.11 1.95, 0.17 1.81 C0.22 1.66, 0.29 1.51, 0.37 1.37 C0.45 1.23, 0.54 1.1, 0.64 0.98 C0.74 0.86, 0.86 0.74, 0.98 0.64 C1.1 0.54, 1.23 0.45, 1.37 0.37 C1.51 0.29, 1.66 0.22, 1.81 0.17 C1.95 0.11, 2.11 0.07, 2.27 0.04 C2.42 0.01, 2.59 0, 2.74 0 C2.9 0, 3.06 0.01, 3.22 0.04 C3.38 0.07, 3.53 0.11, 3.68 0.17 C3.83 0.22, 3.98 0.29, 4.12 0.37 C4.25 0.45, 4.39 0.54, 4.51 0.64 C4.63 0.74, 4.74 0.86, 4.85 0.98 C4.95 1.1, 5.04 1.23, 5.12 1.37 C5.2 1.51, 5.27 1.66, 5.32 1.81 C5.38 1.95, 5.42 2.11, 5.45 2.27 C5.47 2.42, 5.48 2.66, 5.49 2.74 C5.5 2.82, 5.5 2.66, 5.49 2.74" stroke="#495057" stroke-width="2" fill="none"></path></g><g stroke-linecap="round"><g transform="translate(28.352375209745674 43.69947899335716) rotate(0 -1.3411623098511996 -6.957952562841854)"><path d="M0 0 C0.6 -0.24, 3.09 -0.83, 3.6 -1.46 C4.11 -2.1, 3.04 -2.94, 3.05 -3.83 C3.07 -4.71, 3.7 -5.51, 3.7 -6.77 C3.71 -8.03, 3.97 -10.18, 3.08 -11.37 C2.19 -12.56, -0.12 -13.83, -1.64 -13.91 C-3.15 -13.99, -5.3 -13.22, -6.01 -11.85 C-6.73 -10.49, -6.39 -7.21, -5.92 -5.72 C-5.46 -4.24, -4.1 -3.64, -3.23 -2.94 C-2.36 -2.24, -1.22 -2.01, -0.68 -1.52 C-0.14 -1.03, -0.11 -0.25, 0 0 M0 0 C0.6 -0.24, 3.09 -0.83, 3.6 -1.46 C4.11 -2.1, 3.04 -2.94, 3.05 -3.83 C3.07 -4.71, 3.7 -5.51, 3.7 -6.77 C3.71 -8.03, 3.97 -10.18, 3.08 -11.37 C2.19 -12.56, -0.12 -13.83, -1.64 -13.91 C-3.15 -13.99, -5.3 -13.22, -6.01 -11.85 C-6.73 -10.49, -6.39 -7.21, -5.92 -5.72 C-5.46 -4.24, -4.1 -3.64, -3.23 -2.94 C-2.36 -2.24, -1.22 -2.01, -0.68 -1.52 C-0.14 -1.03, -0.11 -0.25, 0 0" stroke="#495057" stroke-width="2" fill="none"></path></g></g><g stroke-linecap="round"><g transform="translate(22.612068605130844 43.06325898330806) rotate(0 -1.7836818709828322 2.934444368391098)"><path d="M0 0 C-0.59 0.98, -2.97 4.89, -3.57 5.87 M0 0 C-0.59 0.98, -2.97 4.89, -3.57 5.87" stroke="#495057" stroke-width="2" fill="none"></path></g></g><g stroke-linecap="round"><g transform="translate(17.710108732635376 37.036273224279284) rotate(0 -3.855054366317688 0.17261437461124274)"><path d="M0 0 C-1.29 0.06, -6.43 0.29, -7.71 0.35 M0 0 C-1.29 0.06, -6.43 0.29, -7.71 0.35" stroke="#495057" stroke-width="2" fill="none"></path></g></g><g stroke-linecap="round"><g transform="translate(20.686369850106644 30.929742996940604) rotate(0 -2.8193681186502317 -2.4741393694277747)"><path d="M0 0 C-0.94 -0.82, -4.7 -4.12, -5.64 -4.95 M0 0 C-0.94 -0.82, -4.7 -4.12, -5.64 -4.95" stroke="#495057" stroke-width="2" fill="none"></path></g></g><g stroke-linecap="round"><g transform="translate(29.630966609955294 27.952173248963675) rotate(0 0.6329193735745662 -3.509825617095231)"><path d="M0 0 C0.21 -1.17, 1.05 -5.85, 1.27 -7.02 M0 0 C0.21 -1.17, 1.05 -5.85, 1.27 -7.02" stroke="#495057" stroke-width="2" fill="none"></path></g></g><g stroke-linecap="round"><g transform="translate(34.182290696621294 33.47123182233054) rotate(0 3.9701306160585546 -0.11507624974083797)"><path d="M0 0 C1.32 -0.04, 6.62 -0.19, 7.94 -0.23 M0 0 C1.32 -0.04, 6.62 -0.19, 7.94 -0.23" stroke="#495057" stroke-width="2" fill="none"></path></g></g><g stroke-linecap="round"><g transform="translate(25.43654017907386 34.54762520771442) rotate(0 0.1137051762643182 2.218210916389978)"><path d="M0 0 C-0.1 0.42, -0.76 1.76, -0.62 2.5 C-0.48 3.23, 0.62 4.11, 0.87 4.44 M0 0 C-0.1 0.42, -0.76 1.76, -0.62 2.5 C-0.48 3.23, 0.62 4.11, 0.87 4.44" stroke="#495057" stroke-width="2" fill="none"></path></g></g><g stroke-linecap="round"><g transform="translate(27.924321059737508 46.69750668124607) rotate(0 2.0376628012603533 -1.0191031292201274)"><path d="M0 0 C0.68 -0.34, 3.4 -1.7, 4.08 -2.04 M0 0 C0.68 -0.34, 3.4 -1.7, 4.08 -2.04" stroke="#495057" stroke-width="2" fill="none"></path></g></g><g stroke-linecap="round"><g transform="translate(30.024305215252184 46.99897759895953) rotate(0 1.3233768720195371 -0.7479956233153757)"><path d="M0 0 C0.44 -0.25, 2.21 -1.25, 2.65 -1.5 M0 0 C0.44 -0.25, 2.21 -1.25, 2.65 -1.5" stroke="#495057" stroke-width="2" fill="none"></path></g></g><g stroke-linecap="round"><g transform="translate(29.378671965803164 48.3173081833645) rotate(0 0.9781481227970517 -0.6329193735745378)"><path d="M0 0 C0.33 -0.21, 1.63 -1.05, 1.96 -1.27 M0 0 C0.33 -0.21, 1.63 -1.05, 1.96 -1.27" stroke="#495057" stroke-width="2" fill="none"></path></g></g><g stroke-linecap="round"><g transform="translate(63.26669115766413 68.1740982277106) rotate(332.851350188029 -3.766432691713476 -2.6340500183328572)"><path d="M0 0 C-0.09 -0.6, -0.15 -2.72, -0.55 -3.59 C-0.96 -4.46, -1.53 -5.03, -2.42 -5.2 C-3.3 -5.37, -5.02 -5.21, -5.88 -4.61 C-6.73 -4.02, -7.26 -2.12, -7.53 -1.62 M0 0 C-0.09 -0.6, -0.15 -2.72, -0.55 -3.59 C-0.96 -4.46, -1.53 -5.03, -2.42 -5.2 C-3.3 -5.37, -5.02 -5.21, -5.88 -4.61 C-6.73 -4.02, -7.26 -2.12, -7.53 -1.62" stroke="#495057" stroke-width="2" fill="none"></path></g></g><g stroke-linecap="round"><g transform="translate(83.63805198822729 132.50652409852876) rotate(0 -28.281208611951513 1.3209254987113468)"><path d="M0 0 C1.28 0.1, 6.68 0.04, 7.71 0.57 C8.74 1.11, 7.83 2.77, 6.2 3.21 C4.56 3.65, 1.74 3.12, -2.12 3.21 C-5.97 3.31, -11.66 3.71, -16.93 3.79 C-22.19 3.86, -26.82 3.79, -33.71 3.67 C-40.59 3.56, -53.07 3.73, -58.23 3.1 C-63.4 2.47, -64.35 0.6, -64.69 -0.11 C-65.03 -0.83, -60.99 -1, -60.25 -1.17 M0 0 C1.28 0.1, 6.68 0.04, 7.71 0.57 C8.74 1.11, 7.83 2.77, 6.2 3.21 C4.56 3.65, 1.74 3.12, -2.12 3.21 C-5.97 3.31, -11.66 3.71, -16.93 3.79 C-22.19 3.86, -26.82 3.79, -33.71 3.67 C-40.59 3.56, -53.07 3.73, -58.23 3.1 C-63.4 2.47, -64.35 0.6, -64.69 -0.11 C-65.03 -0.83, -60.99 -1, -60.25 -1.17" stroke="#495057" stroke-width="2" fill="none"></path></g></g><g stroke-linecap="round"><g transform="translate(53.72224062772955 96.56906566956764) rotate(0 1.762893313339589 -4.069562702990197)"><path d="M0 0 C-2.49 0.03, -11.52 0.16, -14.91 0.19 C-18.3 0.23, -21.08 0.74, -20.36 0.19 C-19.64 -0.35, -12.93 -2.15, -10.58 -3.09 C-8.23 -4.02, -8.44 -5.11, -6.25 -5.4 C-4.06 -5.69, -0.29 -4.92, 2.57 -4.82 C5.42 -4.73, 8.36 -4.18, 10.9 -4.82 C13.44 -5.46, 16.17 -8.26, 17.8 -8.68 C19.43 -9.1, 19.67 -8.42, 20.68 -7.33 C21.7 -6.24, 24.61 -3.44, 23.89 -2.12 C23.17 -0.8, 18.73 0.23, 16.35 0.58 C13.97 0.93, 10.74 0.1, 9.62 0 M0 0 C-2.49 0.03, -11.52 0.16, -14.91 0.19 C-18.3 0.23, -21.08 0.74, -20.36 0.19 C-19.64 -0.35, -12.93 -2.15, -10.58 -3.09 C-8.23 -4.02, -8.44 -5.11, -6.25 -5.4 C-4.06 -5.69, -0.29 -4.92, 2.57 -4.82 C5.42 -4.73, 8.36 -4.18, 10.9 -4.82 C13.44 -5.46, 16.17 -8.26, 17.8 -8.68 C19.43 -9.1, 19.67 -8.42, 20.68 -7.33 C21.7 -6.24, 24.61 -3.44, 23.89 -2.12 C23.17 -0.8, 18.73 0.23, 16.35 0.58 C13.97 0.93, 10.74 0.1, 9.62 0" stroke="#495057" stroke-width="2" fill="none"></path></g></g><g stroke-linecap="round" transform="translate(243.4316658134402 11.5) rotate(0 100 73.5)"><path d="M0 0 C0 0, 0 0, 0 0 M0 0 C0 0, 0 0, 0 0 M-0.26 6.4 C0.86 5.1, 1.99 3.81, 4.99 0.36 M-0.26 6.4 C1.75 4.08, 3.76 1.77, 4.99 0.36 M0.13 12.04 C4.23 7.32, 8.33 2.61, 10.63 -0.03 M0.13 12.04 C3.39 8.29, 6.65 4.55, 10.63 -0.03 M-0.13 18.44 C5.15 12.37, 10.42 6.3, 15.62 0.33 M-0.13 18.44 C4.96 12.58, 10.05 6.73, 15.62 0.33 M0.27 24.08 C8.25 14.9, 16.24 5.71, 21.26 -0.07 M0.27 24.08 C6.94 16.41, 13.61 8.73, 21.26 -0.07 M0 30.48 C7.07 22.36, 14.13 14.23, 26.25 0.29 M0 30.48 C7.13 22.28, 14.25 14.09, 26.25 0.29 M-0.26 36.88 C10.07 24.99, 20.41 13.11, 31.89 -0.1 M-0.26 36.88 C11.77 23.04, 23.8 9.21, 31.89 -0.1 M0.14 42.52 C7.64 33.89, 15.14 25.26, 36.88 0.26 M0.14 42.52 C13.35 27.32, 26.57 12.11, 36.88 0.26 M-0.12 48.92 C12.66 34.21, 25.45 19.5, 42.52 -0.14 M-0.12 48.92 C10.01 37.27, 20.13 25.61, 42.52 -0.14 M0.27 54.56 C13.26 39.62, 26.24 24.68, 47.51 0.22 M0.27 54.56 C10.81 42.44, 21.34 30.32, 47.51 0.22 M0.01 60.96 C13.23 45.75, 26.45 30.55, 53.15 -0.17 M0.01 60.96 C14.34 44.47, 28.67 27.99, 53.15 -0.17 M-0.25 67.36 C20.92 43, 42.09 18.65, 58.14 0.19 M-0.25 67.36 C23.08 40.52, 46.41 13.68, 58.14 0.19 M0.14 73 C22.28 47.53, 44.42 22.07, 63.78 -0.21 M0.14 73 C15.11 55.78, 30.09 38.55, 63.78 -0.21 M-0.12 79.4 C20.23 55.99, 40.58 32.58, 68.77 0.15 M-0.12 79.4 C22.65 53.2, 45.42 27.01, 68.77 0.15 M0.28 85.04 C16.87 65.95, 33.47 46.85, 74.41 -0.24 M0.28 85.04 C22.67 59.28, 45.07 33.51, 74.41 -0.24 M0.01 91.44 C19.75 68.73, 39.49 46.02, 79.4 0.12 M0.01 91.44 C28.62 58.53, 57.23 25.62, 79.4 0.12 M-0.25 97.84 C29.64 63.45, 59.53 29.07, 85.04 -0.28 M-0.25 97.84 C20.32 74.18, 40.89 50.52, 85.04 -0.28 M0.15 103.48 C31.09 67.88, 62.03 32.29, 90.03 0.08 M0.15 103.48 C30.4 68.68, 60.64 33.89, 90.03 0.08 M-0.11 109.88 C23.64 82.55, 47.39 55.23, 95.67 -0.31 M-0.11 109.88 C21.58 84.93, 43.27 59.97, 95.67 -0.31 M0.28 115.52 C25.49 86.52, 50.71 57.51, 100.66 0.05 M0.28 115.52 C21.33 91.31, 42.37 67.1, 100.66 0.05 M0.02 121.92 C30.19 87.22, 60.35 52.51, 106.3 -0.34 M0.02 121.92 C25.02 93.16, 50.02 64.4, 106.3 -0.34 M-0.24 128.32 C42.71 78.9, 85.67 29.49, 111.29 0.02 M-0.24 128.32 C25.81 98.35, 51.85 68.39, 111.29 0.02 M0.15 133.96 C31.76 97.6, 63.37 61.24, 116.27 0.38 M0.15 133.96 C28.93 100.86, 57.7 67.76, 116.27 0.38 M-0.11 140.36 C37.57 97.01, 75.26 53.66, 121.92 -0.02 M-0.11 140.36 C44.44 89.11, 88.98 37.87, 121.92 -0.02 M0.29 146 C35 106.06, 69.72 66.13, 126.91 0.34 M0.29 146 C31.64 109.93, 62.99 73.87, 126.91 0.34 M2.65 149.38 C45.73 99.81, 88.82 50.25, 132.55 -0.05 M2.65 149.38 C36.97 109.9, 71.28 70.42, 132.55 -0.05 M8.29 148.98 C59.69 89.86, 111.09 30.73, 137.54 0.31 M8.29 148.98 C36.88 116.09, 65.47 83.2, 137.54 0.31 M13.28 149.34 C53.57 102.99, 93.87 56.64, 143.18 -0.09 M13.28 149.34 C51.48 105.4, 89.68 61.45, 143.18 -0.09 M18.27 149.7 C69.92 90.29, 121.57 30.87, 148.17 0.27 M18.27 149.7 C64.81 96.16, 111.36 42.61, 148.17 0.27 M23.91 149.31 C56.07 112.31, 88.23 75.31, 153.81 -0.12 M23.91 149.31 C65.61 101.34, 107.31 53.37, 153.81 -0.12 M28.9 149.67 C64.7 108.48, 100.51 67.28, 158.8 0.24 M28.9 149.67 C61.6 112.04, 94.31 74.41, 158.8 0.24 M34.54 149.28 C72.73 105.34, 110.93 61.4, 164.44 -0.16 M34.54 149.28 C75.37 102.3, 116.21 55.32, 164.44 -0.16 M39.53 149.64 C75.95 107.74, 112.37 65.84, 169.43 0.2 M39.53 149.64 C78.18 105.17, 116.83 60.71, 169.43 0.2 M45.17 149.24 C90.18 97.46, 135.2 45.67, 175.07 -0.19 M45.17 149.24 C90.2 97.44, 135.22 45.65, 175.07 -0.19 M50.16 149.6 C90.07 103.69, 129.98 57.77, 180.06 0.17 M50.16 149.6 C88.43 105.57, 126.7 61.55, 180.06 0.17 M55.8 149.21 C88.14 112, 120.49 74.79, 185.7 -0.23 M55.8 149.21 C106.91 90.41, 158.02 31.62, 185.7 -0.23 M60.79 149.57 C99.58 104.94, 138.37 60.32, 190.69 0.13 M60.79 149.57 C92.64 112.92, 124.5 76.27, 190.69 0.13 M66.43 149.17 C117.37 90.57, 168.32 31.96, 196.33 -0.26 M66.43 149.17 C109.76 99.32, 153.1 49.47, 196.33 -0.26 M71.42 149.53 C102.91 113.3, 134.4 77.08, 200.66 0.85 M71.42 149.53 C117.27 96.79, 163.11 44.04, 200.66 0.85 M77.06 149.14 C115.96 104.39, 154.86 59.63, 201.05 6.5 M77.06 149.14 C120.33 99.36, 163.59 49.59, 201.05 6.5 M82.05 149.5 C126.99 97.79, 171.93 46.09, 200.79 12.89 M82.05 149.5 C109.54 117.86, 137.04 86.23, 200.79 12.89 M87.69 149.1 C121.34 110.39, 154.99 71.69, 200.53 19.29 M87.69 149.1 C124.31 106.98, 160.92 64.86, 200.53 19.29 M92.68 149.46 C134.47 101.39, 176.26 53.32, 200.93 24.94 M92.68 149.46 C123.77 113.69, 154.87 77.92, 200.93 24.94 M98.32 149.07 C136.9 104.69, 175.47 60.31, 200.66 31.33 M98.32 149.07 C123.74 119.82, 149.16 90.58, 200.66 31.33 M103.31 149.43 C142.03 104.88, 180.76 60.33, 201.06 36.98 M103.31 149.43 C136.21 111.58, 169.11 73.73, 201.06 36.98 M108.95 149.03 C139.1 114.35, 169.25 79.67, 200.8 43.37 M108.95 149.03 C128.41 126.64, 147.88 104.25, 200.8 43.37 M113.94 149.39 C147.33 110.98, 180.72 72.57, 200.54 49.77 M113.94 149.39 C148.34 109.82, 182.74 70.24, 200.54 49.77 M119.58 149 C142.14 123.05, 164.69 97.1, 200.93 55.42 M119.58 149 C136.61 129.4, 153.65 109.81, 200.93 55.42 M124.57 149.36 C153.32 116.28, 182.08 83.2, 200.67 61.81 M124.57 149.36 C146.66 123.94, 168.75 98.53, 200.67 61.81 M130.21 148.96 C151.18 124.84, 172.16 100.71, 201.06 67.46 M130.21 148.96 C154.19 121.38, 178.16 93.8, 201.06 67.46 M135.2 149.32 C151.17 130.95, 167.14 112.58, 200.8 73.85 M135.2 149.32 C150.93 131.23, 166.66 113.13, 200.8 73.85 M140.18 149.68 C152.46 135.56, 164.74 121.44, 200.54 80.25 M140.18 149.68 C164.3 121.94, 188.41 94.2, 200.54 80.25 M145.83 149.29 C162.34 130.29, 178.86 111.29, 200.94 85.89 M145.83 149.29 C160.87 131.99, 175.91 114.69, 200.94 85.89 M150.81 149.65 C169.02 128.7, 187.23 107.76, 200.67 92.29 M150.81 149.65 C165.6 132.64, 180.39 115.63, 200.67 92.29 M156.46 149.26 C170.32 133.31, 184.19 117.36, 201.07 97.94 M156.46 149.26 C166.27 137.97, 176.08 126.68, 201.07 97.94 M161.44 149.62 C173.02 136.3, 184.59 122.99, 200.81 104.33 M161.44 149.62 C170.75 138.91, 180.05 128.21, 200.81 104.33 M167.09 149.22 C176.72 138.14, 186.35 127.06, 200.55 110.73 M167.09 149.22 C177.61 137.12, 188.13 125.02, 200.55 110.73 M172.07 149.58 C179.27 141.3, 186.47 133.02, 200.94 116.37 M172.07 149.58 C181.57 138.66, 191.07 127.73, 200.94 116.37 M177.72 149.19 C184.35 141.56, 190.98 133.93, 200.68 122.77 M177.72 149.19 C186.74 138.81, 195.76 128.43, 200.68 122.77 M182.7 149.55 C187.07 144.52, 191.44 139.5, 201.07 128.42 M182.7 149.55 C189.82 141.36, 196.94 133.17, 201.07 128.42 M188.35 149.15 C191.07 146.02, 193.79 142.89, 200.81 134.81 M188.35 149.15 C192.02 144.92, 195.7 140.69, 200.81 134.81 M193.33 149.51 C194.87 147.75, 196.4 145.99, 200.55 141.21 M193.33 149.51 C195.7 146.79, 198.07 144.06, 200.55 141.21" stroke="#ced4da" stroke-width="0.5" fill="none"></path><path d="M0 0 C74.37 0, 148.75 0, 200 0 M0 0 C48.46 0, 96.92 0, 200 0 M200 0 C200 58.32, 200 116.63, 200 147 M200 0 C200 46.39, 200 92.78, 200 147 M200 147 C128.94 147, 57.88 147, 0 147 M200 147 C155.37 147, 110.74 147, 0 147 M0 147 C0 107.88, 0 68.77, 0 0 M0 147 C0 114.3, 0 81.59, 0 0" stroke="#495057" stroke-width="1" fill="none"></path></g><g transform="translate(258.4316658134402 18.5) rotate(0 86 17.5)"><text x="0" y="25" font-family="Virgil, Segoe UI Emoji" font-size="28px" fill="#000000" text-anchor="start" style="white-space: pre;" direction="ltr">Quarkus app</text></g><g stroke-linecap="round" transform="translate(258.4316658134402 81.5) rotate(0 79.5 30)"><path d="M3.99 3.47 C3.99 3.47, 3.99 3.47, 3.99 3.47 M3.99 3.47 C3.99 3.47, 3.99 3.47, 3.99 3.47 M1.11 12.89 C3.27 10.4, 5.42 7.92, 10.29 2.32 M1.11 12.89 C4.18 9.35, 7.25 5.82, 10.29 2.32 M1.5 18.53 C4.82 14.71, 8.14 10.89, 16.59 1.17 M1.5 18.53 C5.01 14.5, 8.51 10.47, 16.59 1.17 M1.24 24.93 C6.17 19.26, 11.1 13.59, 21.58 1.53 M1.24 24.93 C5.84 19.64, 10.43 14.35, 21.58 1.53 M1.63 30.57 C11.21 19.56, 20.78 8.55, 27.22 1.14 M1.63 30.57 C11.29 19.47, 20.94 8.37, 27.22 1.14 M1.37 36.97 C7.85 29.52, 14.32 22.08, 32.21 1.5 M1.37 36.97 C8.2 29.11, 15.03 21.26, 32.21 1.5 M1.11 43.37 C12.96 29.73, 24.81 16.1, 37.85 1.1 M1.11 43.37 C8.95 34.35, 16.79 25.33, 37.85 1.1 M1.51 49.01 C14.71 33.82, 27.91 18.63, 42.84 1.46 M1.51 49.01 C16.78 31.43, 32.06 13.86, 42.84 1.46 M2.56 53.9 C16.28 38.11, 30 22.33, 48.48 1.07 M2.56 53.9 C16.93 37.36, 31.31 20.82, 48.48 1.07 M4.92 57.28 C19.77 40.2, 34.61 23.12, 53.47 1.43 M4.92 57.28 C20.27 39.62, 35.62 21.96, 53.47 1.43 M8.59 59.15 C28.25 36.54, 47.91 13.92, 59.11 1.03 M8.59 59.15 C26.04 39.08, 43.48 19.02, 59.11 1.03 M13.58 59.51 C26.56 44.58, 39.53 29.65, 64.1 1.39 M13.58 59.51 C28.92 41.86, 44.27 24.21, 64.1 1.39 M17.26 61.38 C34.74 41.27, 52.22 21.16, 69.74 1 M17.26 61.38 C31.74 44.71, 46.23 28.05, 69.74 1 M22.24 61.74 C33.46 48.83, 44.68 35.93, 74.73 1.36 M22.24 61.74 C41.74 39.3, 61.24 16.87, 74.73 1.36 M27.89 61.34 C44.85 41.83, 61.81 22.31, 80.37 0.97 M27.89 61.34 C47.21 39.12, 66.53 16.89, 80.37 0.97 M32.87 61.7 C52.32 39.33, 71.77 16.96, 85.36 1.33 M32.87 61.7 C51.56 40.21, 70.24 18.72, 85.36 1.33 M37.86 62.06 C48.78 49.51, 59.69 36.95, 91 0.93 M37.86 62.06 C58.12 38.75, 78.39 15.44, 91 0.93 M43.5 61.67 C57.92 45.09, 72.33 28.5, 95.99 1.29 M43.5 61.67 C58.74 44.15, 73.97 26.62, 95.99 1.29 M48.49 62.03 C63.1 45.22, 77.72 28.41, 100.98 1.65 M48.49 62.03 C68.03 39.56, 87.56 17.08, 100.98 1.65 M54.13 61.63 C66.02 47.96, 77.91 34.28, 106.62 1.26 M54.13 61.63 C64.85 49.3, 75.57 36.97, 106.62 1.26 M59.12 61.99 C74.57 44.22, 90.02 26.45, 111.61 1.62 M59.12 61.99 C74.56 44.23, 90 26.47, 111.61 1.62 M64.76 61.6 C79.44 44.72, 94.12 27.83, 117.25 1.22 M64.76 61.6 C81.82 41.98, 98.87 22.36, 117.25 1.22 M69.75 61.96 C83.31 46.37, 96.86 30.77, 122.24 1.58 M69.75 61.96 C90.62 37.95, 111.5 13.94, 122.24 1.58 M75.39 61.56 C88.03 47.03, 100.67 32.49, 127.88 1.19 M75.39 61.56 C89.89 44.89, 104.38 28.22, 127.88 1.19 M80.38 61.92 C92.37 48.13, 104.36 34.34, 132.87 1.55 M80.38 61.92 C92.45 48.05, 104.51 34.17, 132.87 1.55 M86.02 61.53 C100.18 45.25, 114.33 28.97, 138.51 1.15 M86.02 61.53 C100.64 44.72, 115.25 27.91, 138.51 1.15 M91.01 61.89 C107.82 42.56, 124.62 23.23, 144.15 0.76 M91.01 61.89 C103.49 47.53, 115.97 33.18, 144.15 0.76 M96.65 61.5 C111.32 44.63, 125.98 27.76, 149.14 1.12 M96.65 61.5 C114.99 40.4, 133.33 19.3, 149.14 1.12 M101.64 61.86 C116.28 45.01, 130.93 28.17, 152.81 2.99 M101.64 61.86 C119.73 41.04, 137.83 20.23, 152.81 2.99 M107.28 61.46 C123.81 42.45, 140.33 23.45, 156.49 4.86 M107.28 61.46 C122.22 44.28, 137.15 27.1, 156.49 4.86 M112.27 61.82 C129.08 42.49, 145.89 23.15, 159.51 7.48 M112.27 61.82 C122.85 49.65, 133.42 37.49, 159.51 7.48 M117.91 61.43 C128.76 48.95, 139.6 36.48, 159.9 13.12 M117.91 61.43 C132.69 44.43, 147.46 27.43, 159.9 13.12 M122.9 61.79 C137.71 44.75, 152.52 27.72, 160.3 18.77 M122.9 61.79 C137.13 45.42, 151.36 29.05, 160.3 18.77 M128.54 61.39 C135.44 53.46, 142.34 45.52, 160.04 25.17 M128.54 61.39 C138.08 50.42, 147.61 39.45, 160.04 25.17 M133.53 61.75 C142.42 51.52, 151.32 41.29, 160.43 30.81 M133.53 61.75 C140.39 53.86, 147.25 45.97, 160.43 30.81 M139.17 61.36 C146.39 53.06, 153.6 44.76, 160.17 37.21 M139.17 61.36 C146.76 52.63, 154.34 43.91, 160.17 37.21 M144.82 60.96 C150.12 54.87, 155.42 48.77, 160.56 42.85 M144.82 60.96 C150.74 54.15, 156.66 47.34, 160.56 42.85 M151.12 59.81 C153.36 57.24, 155.6 54.66, 158.33 51.51 M151.12 59.81 C153.49 57.08, 155.87 54.35, 158.33 51.51" stroke="#228be6" stroke-width="0.5" fill="none"></path><path d="M15 0 M15 0 C46.48 0, 77.96 0, 144 0 M15 0 C62.56 0, 110.11 0, 144 0 M144 0 C154 0, 159 5, 159 15 M144 0 C154 0, 159 5, 159 15 M159 15 C159 26.67, 159 38.35, 159 45 M159 15 C159 21.68, 159 28.36, 159 45 M159 45 C159 55, 154 60, 144 60 M159 45 C159 55, 154 60, 144 60 M144 60 C103.23 60, 62.46 60, 15 60 M144 60 C116.13 60, 88.25 60, 15 60 M15 60 C5 60, 0 55, 0 45 M15 60 C5 60, 0 55, 0 45 M0 45 C0 34.85, 0 24.71, 0 15 M0 45 C0 35.06, 0 25.13, 0 15 M0 15 C0 5, 5 0, 15 0 M0 15 C0 5, 5 0, 15 0" stroke="#1864ab" stroke-width="1" fill="none"></path></g><g transform="translate(269.4316658134402 94.5) rotate(0 70 12.5)"><text x="0" y="18" font-family="Virgil, Segoe UI Emoji" font-size="20px" fill="#000000" text-anchor="start" style="white-space: pre;" direction="ltr">quarkus-zeebe</text></g><g stroke-linecap="round"><g transform="translate(84.45950750619886 89.59364728240621) rotate(0 69.98607915362066 -2.052053159744048)"><path d="M0 0 C23.33 -0.68, 116.64 -3.42, 139.97 -4.1 M0 0 C23.33 -0.68, 116.64 -3.42, 139.97 -4.1" stroke="#495057" stroke-width="1" fill="none"></path></g><g transform="translate(84.45950750619886 89.59364728240621) rotate(0 69.98607915362066 -2.052053159744048)"><path d="M112.09 6.98 C118.45 4.45, 124.8 1.93, 139.97 -4.1 M112.09 6.98 C119.75 3.93, 127.41 0.89, 139.97 -4.1" stroke="#495057" stroke-width="1" fill="none"></path></g><g transform="translate(84.45950750619886 89.59364728240621) rotate(0 69.98607915362066 -2.052053159744048)"><path d="M111.49 -13.53 C117.98 -11.39, 124.47 -9.24, 139.97 -4.1 M111.49 -13.53 C119.32 -10.94, 127.14 -8.35, 139.97 -4.1" stroke="#495057" stroke-width="1" fill="none"></path></g></g><g transform="translate(130.4316658134402 54.5) rotate(0 21.5 12.5)"><text x="0" y="18" font-family="Virgil, Segoe UI Emoji" font-size="20px" fill="#495057" text-anchor="start" style="white-space: pre;" direction="ltr">http</text></g><g stroke-opacity="0.6" fill-opacity="0.6" stroke-linecap="round" transform="translate(546.4316658134402 10) rotate(0 100 73.5)"><path d="M0 0 C0 0, 0 0, 0 0 M0 0 C0 0, 0 0, 0 0 M-0.26 6.4 C1.21 4.71, 2.67 3.02, 4.99 0.36 M-0.26 6.4 C1.62 4.23, 3.5 2.07, 4.99 0.36 M0.13 12.04 C2.82 8.95, 5.51 5.85, 10.63 -0.03 M0.13 12.04 C2.29 9.56, 4.44 7.09, 10.63 -0.03 M-0.13 18.44 C5.72 11.71, 11.57 4.98, 15.62 0.33 M-0.13 18.44 C3.52 14.24, 7.17 10.04, 15.62 0.33 M0.27 24.08 C8.29 14.85, 16.31 5.63, 21.26 -0.07 M0.27 24.08 C7.71 15.52, 15.15 6.96, 21.26 -0.07 M0 30.48 C7 22.43, 13.99 14.39, 26.25 0.29 M0 30.48 C9.39 19.68, 18.78 8.88, 26.25 0.29 M-0.26 36.88 C12.41 22.31, 25.07 7.74, 31.89 -0.1 M-0.26 36.88 C7.02 28.5, 14.31 20.13, 31.89 -0.1 M0.14 42.52 C10.89 30.15, 21.64 17.79, 36.88 0.26 M0.14 42.52 C10.32 30.81, 20.5 19.1, 36.88 0.26 M-0.12 48.92 C9.2 38.19, 18.53 27.46, 42.52 -0.14 M-0.12 48.92 C12.19 34.75, 24.5 20.59, 42.52 -0.14 M0.27 54.56 C15.62 36.9, 30.97 19.24, 47.51 0.22 M0.27 54.56 C11.34 41.82, 22.42 29.09, 47.51 0.22 M0.01 60.96 C12.23 46.91, 24.44 32.85, 53.15 -0.17 M0.01 60.96 C11.29 47.98, 22.57 35, 53.15 -0.17 M-0.25 67.36 C22.27 41.45, 44.79 15.54, 58.14 0.19 M-0.25 67.36 C21.77 42.03, 43.78 16.7, 58.14 0.19 M0.14 73 C15.92 54.85, 31.7 36.69, 63.78 -0.21 M0.14 73 C17.4 53.15, 34.66 33.3, 63.78 -0.21 M-0.12 79.4 C16.67 60.09, 33.45 40.78, 68.77 0.15 M-0.12 79.4 C24.39 51.2, 48.9 23, 68.77 0.15 M0.28 85.04 C25.51 56.02, 50.74 26.99, 74.41 -0.24 M0.28 85.04 C25.67 55.83, 51.07 26.61, 74.41 -0.24 M0.01 91.44 C17.05 71.84, 34.09 52.24, 79.4 0.12 M0.01 91.44 C25.76 61.82, 51.51 32.2, 79.4 0.12 M-0.25 97.84 C18.62 76.14, 37.48 54.44, 85.04 -0.28 M-0.25 97.84 C25.92 67.73, 52.09 37.63, 85.04 -0.28 M0.15 103.48 C32.61 66.13, 65.08 28.78, 90.03 0.08 M0.15 103.48 C30.67 68.37, 61.19 33.26, 90.03 0.08 M-0.11 109.88 C23.98 82.16, 48.07 54.45, 95.67 -0.31 M-0.11 109.88 C23.58 82.62, 47.28 55.36, 95.67 -0.31 M0.28 115.52 C29.69 81.69, 59.1 47.86, 100.66 0.05 M0.28 115.52 C36.56 73.78, 72.85 32.04, 100.66 0.05 M0.02 121.92 C25.46 92.65, 50.91 63.38, 106.3 -0.34 M0.02 121.92 C26.67 91.25, 53.33 60.59, 106.3 -0.34 M-0.24 128.32 C40.61 81.32, 81.46 34.33, 111.29 0.02 M-0.24 128.32 C28 95.83, 56.24 63.34, 111.29 0.02 M0.15 133.96 C27.97 101.95, 55.8 69.95, 116.27 0.38 M0.15 133.96 C24.17 106.33, 48.18 78.71, 116.27 0.38 M-0.11 140.36 C34.6 100.43, 69.31 60.5, 121.92 -0.02 M-0.11 140.36 C46.39 86.87, 92.89 33.38, 121.92 -0.02 M0.29 146 C45.09 94.46, 89.89 42.92, 126.91 0.34 M0.29 146 C26.65 115.68, 53.01 85.35, 126.91 0.34 M2.65 149.38 C41.3 104.92, 79.95 60.46, 132.55 -0.05 M2.65 149.38 C30.49 117.35, 58.34 85.31, 132.55 -0.05 M8.29 148.98 C51.03 99.82, 93.77 50.65, 137.54 0.31 M8.29 148.98 C53.65 96.81, 99 44.64, 137.54 0.31 M13.28 149.34 C39.6 119.06, 65.93 88.78, 143.18 -0.09 M13.28 149.34 C55.58 100.68, 97.88 52.02, 143.18 -0.09 M18.27 149.7 C65.76 95.06, 113.26 40.42, 148.17 0.27 M18.27 149.7 C61.66 99.78, 105.05 49.86, 148.17 0.27 M23.91 149.31 C68.55 97.96, 113.19 46.6, 153.81 -0.12 M23.91 149.31 C74.64 90.95, 125.38 32.58, 153.81 -0.12 M28.9 149.67 C68 104.69, 107.1 59.7, 158.8 0.24 M28.9 149.67 C62.65 110.85, 96.4 72.02, 158.8 0.24 M34.54 149.28 C61.99 117.7, 89.44 86.12, 164.44 -0.16 M34.54 149.28 C84.92 91.32, 135.31 33.36, 164.44 -0.16 M39.53 149.64 C68.89 115.86, 98.25 82.08, 169.43 0.2 M39.53 149.64 C69.86 114.74, 100.19 79.85, 169.43 0.2 M45.17 149.24 C76.77 112.88, 108.38 76.52, 175.07 -0.19 M45.17 149.24 C97.05 89.55, 148.94 29.87, 175.07 -0.19 M50.16 149.6 C86.11 108.25, 122.05 66.89, 180.06 0.17 M50.16 149.6 C97.38 95.27, 144.61 40.95, 180.06 0.17 M55.8 149.21 C84.91 115.71, 114.03 82.22, 185.7 -0.23 M55.8 149.21 C83.11 117.79, 110.42 86.37, 185.7 -0.23 M60.79 149.57 C91.46 114.28, 122.13 78.99, 190.69 0.13 M60.79 149.57 C107.75 95.54, 154.72 41.5, 190.69 0.13 M66.43 149.17 C103.47 106.56, 140.52 63.94, 196.33 -0.26 M66.43 149.17 C106.5 103.07, 146.58 56.97, 196.33 -0.26 M71.42 149.53 C114.59 99.87, 157.76 50.2, 200.66 0.85 M71.42 149.53 C115.65 98.65, 159.88 47.77, 200.66 0.85 M77.06 149.14 C114.84 105.67, 152.63 62.21, 201.05 6.5 M77.06 149.14 C112.45 108.43, 147.84 67.71, 201.05 6.5 M82.05 149.5 C111.39 115.74, 140.74 81.98, 200.79 12.89 M82.05 149.5 C108.57 118.98, 135.1 88.47, 200.79 12.89 M87.69 149.1 C122.43 109.13, 157.18 69.16, 200.53 19.29 M87.69 149.1 C114.25 118.55, 140.81 87.99, 200.53 19.29 M92.68 149.46 C125.05 112.22, 157.42 74.98, 200.93 24.94 M92.68 149.46 C127.96 108.88, 163.24 68.29, 200.93 24.94 M98.32 149.07 C125.62 117.66, 152.93 86.25, 200.66 31.33 M98.32 149.07 C134.75 107.17, 171.17 65.26, 200.66 31.33 M103.31 149.43 C128.74 120.17, 154.18 90.9, 201.06 36.98 M103.31 149.43 C139.86 107.38, 176.42 65.32, 201.06 36.98 M108.95 149.03 C136.52 117.31, 164.1 85.59, 200.8 43.37 M108.95 149.03 C140.88 112.3, 172.81 75.57, 200.8 43.37 M113.94 149.39 C144.07 114.73, 174.21 80.06, 200.54 49.77 M113.94 149.39 C139.46 120.04, 164.98 90.68, 200.54 49.77 M119.58 149 C141.87 123.36, 164.16 97.72, 200.93 55.42 M119.58 149 C137.01 128.94, 154.45 108.88, 200.93 55.42 M124.57 149.36 C141.81 129.53, 159.05 109.69, 200.67 61.81 M124.57 149.36 C141.19 130.24, 157.81 111.11, 200.67 61.81 M130.21 148.96 C144.43 132.6, 158.65 116.24, 201.06 67.46 M130.21 148.96 C148.83 127.54, 167.46 106.12, 201.06 67.46 M135.2 149.32 C148.78 133.7, 162.36 118.08, 200.8 73.85 M135.2 149.32 C153.48 128.3, 171.76 107.27, 200.8 73.85 M140.18 149.68 C154.67 133.02, 169.15 116.36, 200.54 80.25 M140.18 149.68 C158.49 128.63, 176.79 107.58, 200.54 80.25 M145.83 149.29 C159.45 133.61, 173.08 117.94, 200.94 85.89 M145.83 149.29 C157.5 135.86, 169.18 122.43, 200.94 85.89 M150.81 149.65 C165.68 132.55, 180.55 115.45, 200.67 92.29 M150.81 149.65 C163.21 135.39, 175.6 121.13, 200.67 92.29 M156.46 149.26 C172.17 131.18, 187.89 113.1, 201.07 97.94 M156.46 149.26 C172.42 130.89, 188.38 112.53, 201.07 97.94 M161.44 149.62 C170.44 139.27, 179.43 128.92, 200.81 104.33 M161.44 149.62 C173.85 135.34, 186.26 121.07, 200.81 104.33 M167.09 149.22 C179.59 134.84, 192.09 120.46, 200.55 110.73 M167.09 149.22 C175.76 139.24, 184.44 129.26, 200.55 110.73 M172.07 149.58 C178.75 141.91, 185.42 134.23, 200.94 116.37 M172.07 149.58 C178.5 142.19, 184.92 134.81, 200.94 116.37 M177.72 149.19 C182.54 143.64, 187.36 138.1, 200.68 122.77 M177.72 149.19 C183.74 142.26, 189.76 135.33, 200.68 122.77 M182.7 149.55 C187.35 144.2, 192 138.85, 201.07 128.42 M182.7 149.55 C189.92 141.25, 197.14 132.94, 201.07 128.42 M188.35 149.15 C190.92 146.19, 193.5 143.22, 200.81 134.81 M188.35 149.15 C192.28 144.62, 196.22 140.09, 200.81 134.81 M193.33 149.51 C196.14 146.29, 198.94 143.06, 200.55 141.21 M193.33 149.51 C195.87 146.59, 198.41 143.67, 200.55 141.21" stroke="#82c91e" stroke-width="0.5" fill="none"></path><path d="M0 0 C46.44 0, 92.89 0, 200 0 M0 0 C52.05 0, 104.11 0, 200 0 M200 0 C200 47.82, 200 95.64, 200 147 M200 0 C200 46.8, 200 93.6, 200 147 M200 147 C121.81 147, 43.62 147, 0 147 M200 147 C156.41 147, 112.82 147, 0 147 M0 147 C0 116.29, 0 85.58, 0 0 M0 147 C0 103.08, 0 59.16, 0 0" stroke="#5c940d" stroke-width="1" fill="none"></path></g><g transform="translate(556.4316658134402 20) rotate(0 90 17.5)"><text x="0" y="25" font-family="Virgil, Segoe UI Emoji" font-size="28px" fill="#000000" text-anchor="start" style="white-space: pre;" direction="ltr">Zeebe broker</text></g><g stroke-linecap="round" transform="translate(566.9316658134402 73.5) rotate(0 79.5 34)"><path d="M2.68 6.31 C2.68 6.31, 2.68 6.31, 2.68 6.31 M2.68 6.31 C2.68 6.31, 2.68 6.31, 2.68 6.31 M1.11 14.21 C3.11 11.91, 5.11 9.61, 10.95 2.89 M1.11 14.21 C3.9 11, 6.69 7.8, 10.95 2.89 M1.5 19.86 C7.33 13.15, 13.15 6.45, 17.9 0.99 M1.5 19.86 C6.04 14.63, 10.59 9.41, 17.9 0.99 M1.24 26.25 C8.32 18.11, 15.4 9.97, 23.55 0.59 M1.24 26.25 C8.34 18.08, 15.44 9.91, 23.55 0.59 M1.64 31.9 C11.19 20.9, 20.75 9.91, 28.53 0.95 M1.64 31.9 C7.8 24.8, 13.97 17.71, 28.53 0.95 M1.37 38.29 C9.46 28.99, 17.55 19.69, 34.18 0.56 M1.37 38.29 C13.57 24.26, 25.77 10.23, 34.18 0.56 M1.11 44.69 C13.48 30.47, 25.84 16.25, 39.16 0.92 M1.11 44.69 C12.74 31.32, 24.36 17.95, 39.16 0.92 M1.51 50.34 C15.53 34.2, 29.56 18.07, 44.81 0.52 M1.51 50.34 C12.02 38.24, 22.53 26.15, 44.81 0.52 M1.9 55.98 C12.47 43.82, 23.03 31.67, 49.79 0.89 M1.9 55.98 C16.56 39.12, 31.21 22.26, 49.79 0.89 M3.61 60.11 C17.91 43.66, 32.21 27.21, 54.78 1.25 M3.61 60.11 C23.22 37.56, 42.82 15, 54.78 1.25 M5.32 64.25 C21.62 45.49, 37.93 26.73, 60.42 0.85 M5.32 64.25 C26.5 39.88, 47.68 15.51, 60.42 0.85 M8.33 66.87 C22.04 51.1, 35.76 35.33, 65.41 1.21 M8.33 66.87 C25.35 47.3, 42.36 27.73, 65.41 1.21 M12.01 68.74 C29.79 48.29, 47.57 27.83, 71.05 0.82 M12.01 68.74 C26.61 51.95, 41.21 35.15, 71.05 0.82 M17.65 68.35 C36.91 46.19, 56.17 24.03, 76.04 1.18 M17.65 68.35 C37.84 45.12, 58.03 21.89, 76.04 1.18 M22.64 68.71 C39.38 49.45, 56.12 30.19, 81.68 0.78 M22.64 68.71 C43.57 44.62, 64.51 20.54, 81.68 0.78 M28.28 68.31 C43.99 50.24, 59.7 32.17, 86.67 1.14 M28.28 68.31 C48 45.63, 67.72 22.94, 86.67 1.14 M33.27 68.67 C56.12 42.38, 78.98 16.09, 92.31 0.75 M33.27 68.67 C52.11 47, 70.95 25.32, 92.31 0.75 M38.91 68.28 C60.83 43.06, 82.75 17.85, 97.3 1.11 M38.91 68.28 C58.67 45.55, 78.42 22.83, 97.3 1.11 M43.9 68.64 C58.83 51.46, 73.76 34.29, 102.94 0.71 M43.9 68.64 C62.03 47.78, 80.16 26.93, 102.94 0.71 M49.54 68.24 C70.75 43.85, 91.96 19.45, 107.93 1.07 M49.54 68.24 C65.03 50.43, 80.52 32.61, 107.93 1.07 M54.53 68.6 C67.44 53.75, 80.35 38.9, 113.57 0.68 M54.53 68.6 C68.55 52.47, 82.58 36.34, 113.57 0.68 M60.17 68.21 C80.25 45.11, 100.32 22.02, 118.56 1.04 M60.17 68.21 C77.06 48.78, 93.95 29.35, 118.56 1.04 M65.16 68.57 C84.01 46.88, 102.86 25.2, 124.2 0.64 M65.16 68.57 C87.77 42.56, 110.37 16.55, 124.2 0.64 M70.8 68.17 C83.96 53.04, 97.12 37.9, 129.19 1 M70.8 68.17 C84.48 52.44, 98.15 36.71, 129.19 1 M75.79 68.53 C92.68 49.1, 109.58 29.66, 134.83 0.61 M75.79 68.53 C97.55 43.5, 119.31 18.47, 134.83 0.61 M81.43 68.14 C99.7 47.12, 117.97 26.11, 139.82 0.97 M81.43 68.14 C103.45 42.81, 125.47 17.48, 139.82 0.97 M86.42 68.5 C106.5 45.4, 126.59 22.29, 144.15 2.08 M86.42 68.5 C107.96 43.72, 129.5 18.94, 144.15 2.08 M92.06 68.1 C109.86 47.63, 127.66 27.16, 149.8 1.69 M92.06 68.1 C106.38 51.63, 120.71 35.15, 149.8 1.69 M97.05 68.46 C110.01 53.55, 122.97 38.64, 153.47 3.56 M97.05 68.46 C115.57 47.16, 134.08 25.86, 153.47 3.56 M102.04 68.82 C118.93 49.39, 135.83 29.95, 156.49 6.18 M102.04 68.82 C114.58 54.39, 127.13 39.96, 156.49 6.18 M107.68 68.43 C126.03 47.32, 144.37 26.22, 159.51 8.81 M107.68 68.43 C124.2 49.43, 140.71 30.43, 159.51 8.81 M112.67 68.79 C122.81 57.13, 132.94 45.46, 159.9 14.45 M112.67 68.79 C129.69 49.21, 146.71 29.62, 159.9 14.45 M118.31 68.4 C128.37 56.82, 138.44 45.24, 160.3 20.09 M118.31 68.4 C134.37 49.92, 150.43 31.45, 160.3 20.09 M123.3 68.76 C134.83 55.49, 146.36 42.23, 160.04 26.49 M123.3 68.76 C135.33 54.91, 147.37 41.06, 160.04 26.49 M128.94 68.36 C138.48 57.39, 148.01 46.42, 160.43 32.13 M128.94 68.36 C138.72 57.11, 148.5 45.85, 160.43 32.13 M133.93 68.72 C141.73 59.75, 149.53 50.77, 160.17 38.53 M133.93 68.72 C141.13 60.43, 148.34 52.14, 160.17 38.53 M139.57 68.33 C144.95 62.14, 150.33 55.95, 160.56 44.18 M139.57 68.33 C144.76 62.35, 149.96 56.38, 160.56 44.18 M143.9 69.44 C147.86 64.89, 151.81 60.34, 159.65 51.33 M143.9 69.44 C150.16 62.24, 156.41 55.05, 159.65 51.33 M152.17 66.03 C154.2 63.69, 156.23 61.35, 158.73 58.48 M152.17 66.03 C154.07 63.84, 155.97 61.65, 158.73 58.48" stroke="#fd7e14" stroke-width="0.5" fill="none"></path><path d="M17 0 M17 0 C49.35 0, 81.7 0, 142 0 M17 0 C60.05 0, 103.1 0, 142 0 M142 0 C153.33 0, 159 5.67, 159 17 M142 0 C153.33 0, 159 5.67, 159 17 M159 17 C159 28.97, 159 40.94, 159 51 M159 17 C159 28.01, 159 39.03, 159 51 M159 51 C159 62.33, 153.33 68, 142 68 M159 51 C159 62.33, 153.33 68, 142 68 M142 68 C109.31 68, 76.63 68, 17 68 M142 68 C107.79 68, 73.58 68, 17 68 M17 68 C5.67 68, 0 62.33, 0 51 M17 68 C5.67 68, 0 62.33, 0 51 M0 51 C0 43.48, 0 35.96, 0 17 M0 51 C0 41.44, 0 31.88, 0 17 M0 17 C0 5.67, 5.67 0, 17 0 M0 17 C0 5.67, 5.67 0, 17 0" stroke="#d9480f" stroke-width="1" fill="none"></path></g><g transform="translate(603.4316658134402 82.5) rotate(0 42.5 25)"><text x="42.5" y="18" font-family="Virgil, Segoe UI Emoji" font-size="20px" fill="#d9480f" text-anchor="middle" style="white-space: pre;" direction="ltr">debug</text><text x="42.5" y="43" font-family="Virgil, Segoe UI Emoji" font-size="20px" fill="#d9480f" text-anchor="middle" style="white-space: pre;" direction="ltr">exporter</text></g><g stroke-linecap="round"><g transform="translate(416.4316658134402 121.5) rotate(0 61.619493963608306 -0.6194939636082495)"><path d="M0 0 C20.54 -0.21, 102.7 -1.03, 123.24 -1.24 M0 0 C20.54 -0.21, 102.7 -1.03, 123.24 -1.24" stroke="#1864ab" stroke-width="1" fill="none"></path></g><g transform="translate(416.4316658134402 121.5) rotate(0 61.619493963608306 -0.6194939636082495)"><path d="M95.15 9.3 C102.99 6.36, 110.83 3.42, 123.24 -1.24 M95.15 9.3 C102.07 6.71, 108.98 4.11, 123.24 -1.24" stroke="#1864ab" stroke-width="1" fill="none"></path></g><g transform="translate(416.4316658134402 121.5) rotate(0 61.619493963608306 -0.6194939636082495)"><path d="M94.95 -11.22 C102.84 -8.43, 110.74 -5.65, 123.24 -1.24 M94.95 -11.22 C101.91 -8.76, 108.88 -6.3, 123.24 -1.24" stroke="#1864ab" stroke-width="1" fill="none"></path></g></g><g transform="translate(458.9316658134402 82) rotate(0 20 12.5)"><text x="0" y="18" font-family="Virgil, Segoe UI Emoji" font-size="20px" fill="#1864ab" text-anchor="start" style="white-space: pre;" direction="ltr">grpc</text></g><g stroke-linecap="round" transform="translate(239.4316658134402 194) rotate(0 106.5 36)"><path d="M0 0 C0 0, 0 0, 0 0 M0 0 C0 0, 0 0, 0 0 M-0.26 6.4 C1.55 4.31, 3.37 2.22, 4.99 0.36 M-0.26 6.4 C1.29 4.61, 2.84 2.82, 4.99 0.36 M0.13 12.04 C3.25 8.46, 6.36 4.88, 10.63 -0.03 M0.13 12.04 C3.16 8.56, 6.19 5.08, 10.63 -0.03 M-0.13 18.44 C6.1 11.27, 12.33 4.1, 15.62 0.33 M-0.13 18.44 C5.67 11.77, 11.46 5.1, 15.62 0.33 M0.27 24.08 C5.4 18.18, 10.53 12.27, 21.26 -0.07 M0.27 24.08 C6.9 16.45, 13.54 8.81, 21.26 -0.07 M0 30.48 C8.87 20.28, 17.73 10.09, 26.25 0.29 M0 30.48 C7.32 22.06, 14.64 13.65, 26.25 0.29 M-0.26 36.88 C12.46 22.25, 25.17 7.63, 31.89 -0.1 M-0.26 36.88 C10.56 24.43, 21.39 11.98, 31.89 -0.1 M0.14 42.52 C10.95 30.08, 21.77 17.64, 36.88 0.26 M0.14 42.52 C10.18 30.97, 20.22 19.42, 36.88 0.26 M-0.12 48.92 C16.87 29.37, 33.87 9.81, 42.52 -0.14 M-0.12 48.92 C14.54 32.05, 29.2 15.19, 42.52 -0.14 M0.27 54.56 C14.03 38.73, 27.79 22.9, 47.51 0.22 M0.27 54.56 C11.79 41.31, 23.32 28.05, 47.51 0.22 M0.01 60.96 C16.27 42.25, 32.53 23.55, 53.15 -0.17 M0.01 60.96 C14.81 43.94, 29.6 26.92, 53.15 -0.17 M-0.25 67.36 C14.78 50.07, 29.81 32.78, 58.14 0.19 M-0.25 67.36 C19.02 45.19, 38.29 23.02, 58.14 0.19 M0.8 72.25 C24.3 45.21, 47.79 18.18, 63.78 -0.21 M0.8 72.25 C15.17 55.71, 29.54 39.18, 63.78 -0.21 M5.79 72.61 C19.92 56.34, 34.06 40.08, 68.77 0.15 M5.79 72.61 C25.79 49.59, 45.8 26.58, 68.77 0.15 M11.43 72.21 C27.69 53.5, 43.96 34.79, 74.41 -0.24 M11.43 72.21 C25.76 55.73, 40.08 39.25, 74.41 -0.24 M16.42 72.57 C37.04 48.84, 57.67 25.11, 79.4 0.12 M16.42 72.57 C31.51 55.21, 46.61 37.84, 79.4 0.12 M22.06 72.18 C36.11 56.01, 50.16 39.85, 85.04 -0.28 M22.06 72.18 C38.3 53.5, 54.54 34.81, 85.04 -0.28 M27.05 72.54 C39.94 57.7, 52.83 42.87, 90.03 0.08 M27.05 72.54 C50.73 45.29, 74.41 18.05, 90.03 0.08 M32.69 72.14 C53.62 48.06, 74.55 23.99, 95.67 -0.31 M32.69 72.14 C48.27 54.21, 63.86 36.28, 95.67 -0.31 M37.68 72.5 C62.7 43.72, 87.72 14.93, 100.66 0.05 M37.68 72.5 C53.63 54.15, 69.59 35.79, 100.66 0.05 M42.66 72.86 C58.81 54.29, 74.96 35.71, 106.3 -0.34 M42.66 72.86 C59.94 52.98, 77.22 33.11, 106.3 -0.34 M48.31 72.47 C70.33 47.14, 92.35 21.8, 111.29 0.02 M48.31 72.47 C63.75 54.7, 79.2 36.93, 111.29 0.02 M53.29 72.83 C69.56 54.12, 85.83 35.4, 116.27 0.38 M53.29 72.83 C75.46 47.32, 97.64 21.82, 116.27 0.38 M58.94 72.43 C72.12 57.27, 85.3 42.11, 121.92 -0.02 M58.94 72.43 C82.38 45.47, 105.82 18.5, 121.92 -0.02 M63.92 72.79 C77.78 56.85, 91.64 40.91, 126.91 0.34 M63.92 72.79 C80.17 54.11, 96.41 35.42, 126.91 0.34 M69.57 72.4 C83.85 55.97, 98.14 39.53, 132.55 -0.05 M69.57 72.4 C88.56 50.55, 107.55 28.7, 132.55 -0.05 M74.55 72.76 C88.17 57.1, 101.78 41.43, 137.54 0.31 M74.55 72.76 C93.75 50.67, 112.95 28.58, 137.54 0.31 M80.2 72.36 C102.62 46.57, 125.04 20.77, 143.18 -0.09 M80.2 72.36 C102.08 47.19, 123.96 22.02, 143.18 -0.09 M85.18 72.72 C105.78 49.03, 126.38 25.33, 148.17 0.27 M85.18 72.72 C107.58 46.96, 129.98 21.2, 148.17 0.27 M90.83 72.33 C106.81 53.94, 122.8 35.55, 153.81 -0.12 M90.83 72.33 C107.9 52.69, 124.97 33.06, 153.81 -0.12 M95.81 72.69 C110.68 55.58, 125.56 38.48, 158.8 0.24 M95.81 72.69 C109.65 56.78, 123.48 40.86, 158.8 0.24 M101.46 72.29 C119.1 52, 136.75 31.7, 164.44 -0.16 M101.46 72.29 C119.11 51.99, 136.75 31.69, 164.44 -0.16 M106.44 72.65 C120.92 56, 135.41 39.34, 169.43 0.2 M106.44 72.65 C122.4 54.3, 138.35 35.95, 169.43 0.2 M112.09 72.26 C130.87 50.65, 149.65 29.04, 175.07 -0.19 M112.09 72.26 C126.57 55.6, 141.04 38.95, 175.07 -0.19 M117.07 72.62 C142.15 43.77, 167.23 14.92, 180.06 0.17 M117.07 72.62 C139.75 46.54, 162.42 20.46, 180.06 0.17 M122.72 72.23 C139.99 52.35, 157.26 32.48, 185.7 -0.23 M122.72 72.23 C136.68 56.16, 150.64 40.1, 185.7 -0.23 M127.7 72.59 C142.42 55.65, 157.14 38.72, 190.69 0.13 M127.7 72.59 C152.25 44.35, 176.8 16.11, 190.69 0.13 M133.35 72.19 C150.83 52.08, 168.32 31.96, 196.33 -0.26 M133.35 72.19 C146.21 57.39, 159.08 42.59, 196.33 -0.26 M138.33 72.55 C152.97 55.71, 167.61 38.87, 201.32 0.1 M138.33 72.55 C159.73 47.94, 181.12 23.33, 201.32 0.1 M143.98 72.16 C161.67 51.81, 179.36 31.46, 206.96 -0.3 M143.98 72.16 C167.47 45.13, 190.97 18.1, 206.96 -0.3 M148.96 72.52 C167.45 51.26, 185.93 29.99, 211.95 0.06 M148.96 72.52 C171.23 46.9, 193.5 21.29, 211.95 0.06 M153.95 72.88 C176.13 47.37, 198.31 21.85, 215.62 1.93 M153.95 72.88 C176.79 46.6, 199.64 20.32, 215.62 1.93 M159.59 72.48 C177.38 52.02, 195.17 31.56, 215.36 8.33 M159.59 72.48 C177.56 51.81, 195.53 31.14, 215.36 8.33 M164.58 72.84 C179.55 55.62, 194.53 38.39, 215.75 13.98 M164.58 72.84 C179.19 56.03, 193.8 39.23, 215.75 13.98 M170.22 72.45 C179.92 61.29, 189.62 50.13, 215.49 20.37 M170.22 72.45 C183.05 57.69, 195.88 42.93, 215.49 20.37 M175.21 72.81 C189.69 56.15, 204.16 39.5, 215.23 26.77 M175.21 72.81 C185.39 61.09, 195.58 49.38, 215.23 26.77 M180.85 72.41 C190.86 60.9, 200.87 49.39, 215.63 32.41 M180.85 72.41 C188.56 63.55, 196.26 54.7, 215.63 32.41 M185.84 72.77 C196.23 60.82, 206.63 48.86, 215.36 38.81 M185.84 72.77 C193.52 63.94, 201.2 55.1, 215.36 38.81 M191.48 72.38 C197.58 65.36, 203.68 58.35, 215.76 44.45 M191.48 72.38 C197.99 64.9, 204.49 57.42, 215.76 44.45 M196.47 72.74 C203.16 65.04, 209.85 57.35, 215.5 50.85 M196.47 72.74 C202.8 65.46, 209.12 58.18, 215.5 50.85 M202.11 72.34 C204.99 69.04, 207.87 65.73, 215.24 57.25 M202.11 72.34 C206.06 67.8, 210.01 63.26, 215.24 57.25 M207.1 72.7 C210.1 69.25, 213.1 65.8, 215.63 62.89 M207.1 72.7 C210.07 69.29, 213.04 65.87, 215.63 62.89" stroke="#82c91e" stroke-width="0.5" fill="none"></path><path d="M0 0 C48.43 0, 96.85 0, 213 0 M0 0 C48.15 0, 96.3 0, 213 0 M213 0 C213 25.11, 213 50.21, 213 72 M213 0 C213 22.99, 213 45.97, 213 72 M213 72 C164.16 72, 115.33 72, 0 72 M213 72 C134.17 72, 55.35 72, 0 72 M0 72 C0 45.43, 0 18.85, 0 0 M0 72 C0 53.03, 0 34.05, 0 0" stroke="#5c940d" stroke-width="1" fill="none"></path></g><g transform="translate(262.356220140966 210.7610120727835) rotate(0 82 17.5)"><text x="0" y="25" font-family="Virgil, Segoe UI Emoji" font-size="28px" fill="#000000" text-anchor="start" style="white-space: pre;" direction="ltr">Dev monitor</text></g><g stroke-linecap="round"><g transform="translate(459.2528206405972 237.9708220102483) rotate(0 96.55281041122998 -45.06186121706497)"><path d="M0 0 C28.59 -1.27, 139.41 7.67, 171.55 -7.59 C203.7 -22.86, 189.31 -77.59, 192.86 -91.59" stroke="#d9480f" stroke-width="1.5" fill="none" stroke-dasharray="8 9"></path></g><g transform="translate(459.2528206405972 237.9708220102483) rotate(0 96.55281041122998 -45.06186121706497)"><path d="M28.23 -10.14 C22.35 -8.03, 16.46 -5.91, 0 0" stroke="#d9480f" stroke-width="1.5" fill="none"></path></g><g transform="translate(459.2528206405972 237.9708220102483) rotate(0 96.55281041122998 -45.06186121706497)"><path d="M28.15 10.38 C22.28 8.22, 16.41 6.05, 0 0" stroke="#d9480f" stroke-width="1.5" fill="none"></path></g></g><g stroke-linecap="round"><g transform="translate(71.42637230383377 148.55090751479645) rotate(0 82.00264675480321 42.42137899703778)"><path d="M0 0 C3.17 12.98, -8.32 64.32, 19.01 77.9 C46.34 91.47, 139.84 80.86, 164.01 81.45 M0 0 C3.17 12.98, -8.32 64.32, 19.01 77.9 C46.34 91.47, 139.84 80.86, 164.01 81.45" stroke="#495057" stroke-width="1" fill="none"></path></g><g transform="translate(71.42637230383377 148.55090751479645) rotate(0 82.00264675480321 42.42137899703778)"><path d="M136.27 92.88 C146.69 88.58, 157.11 84.29, 164.01 81.45 M136.27 92.88 C146.95 88.48, 157.63 84.08, 164.01 81.45" stroke="#495057" stroke-width="1" fill="none"></path></g><g transform="translate(71.42637230383377 148.55090751479645) rotate(0 82.00264675480321 42.42137899703778)"><path d="M135.41 72.37 C146.15 75.78, 156.9 79.19, 164.01 81.45 M135.41 72.37 C146.42 75.87, 157.43 79.36, 164.01 81.45" stroke="#495057" stroke-width="1" fill="none"></path></g></g><g transform="translate(134.812171849832 205) rotate(0 21.5 12.5)"><text x="0" y="18" font-family="Virgil, Segoe UI Emoji" font-size="20px" fill="#495057" text-anchor="start" style="white-space: pre;" direction="ltr">http</text></g><g transform="translate(530.3462537448789 213.5242717310698) rotate(0 26.5 25)"><text x="0" y="18" font-family="Virgil, Segoe UI Emoji" font-size="20px" fill="#d9480f" text-anchor="start" style="white-space: pre;" direction="ltr">http </text><text x="0" y="43" font-family="Virgil, Segoe UI Emoji" font-size="20px" fill="#d9480f" text-anchor="start" style="white-space: pre;" direction="ltr"></text></g></svg>